<svg id="hererra" xmlns="http://www.w3.org/2000/svg" viewBox="0 0 1920 1080"><defs><style>.cls-1{fill:#3fbeea;}</style></defs><path class="cls-1" d="M1154.24,454.81v26.27h25.46V454.81h15.42v68.36H1179.7v-28.6h-25.46v28.6h-15.51V454.81Z"/><path class="cls-1" d="M1219.66,503.29c.51,6.39,6.8,9.43,14,9.43a44,44,0,0,0,13.69-2l2,10.44a48.92,48.92,0,0,1-18,3.05c-16.84,0-26.48-9.74-26.48-25.26,0-12.58,7.81-26.47,25.06-26.47,16,0,22.11,12.47,22.11,24.75a36.8,36.8,0,0,1-.51,6.08Zm18.16-10.55c0-3.75-1.63-10-8.73-10-6.49,0-9.12,5.88-9.53,10Z"/><path class="cls-1" d="M1261.35,489.9c0-7.3-.21-12.07-.41-16.33h13.29l.5,9.13h.41c2.54-7.2,8.62-10.24,13.39-10.24a16,16,0,0,1,3.24.2v14.51a21.37,21.37,0,0,0-4.15-.41c-5.68,0-9.54,3-10.55,7.81a17.56,17.56,0,0,0-.31,3.45v25.15h-15.41Z"/><path class="cls-1" d="M1299.89,489.9c0-7.3-.21-12.07-.41-16.33h13.29l.5,9.13h.41c2.54-7.2,8.62-10.24,13.39-10.24a16,16,0,0,1,3.24.2v14.51a21.37,21.37,0,0,0-4.15-.41c-5.68,0-9.54,3-10.55,7.81a17.56,17.56,0,0,0-.31,3.45v25.15h-15.41Z"/><path class="cls-1" d="M1349.48,503.29c.51,6.39,6.8,9.43,14,9.43a44,44,0,0,0,13.69-2l2,10.44a48.92,48.92,0,0,1-18,3.05c-16.84,0-26.47-9.74-26.47-25.26,0-12.58,7.81-26.47,25-26.47,16,0,22.11,12.47,22.11,24.75a36.8,36.8,0,0,1-.51,6.08Zm18.16-10.55c0-3.75-1.63-10-8.72-10-6.5,0-9.13,5.88-9.54,10Z"/><path class="cls-1" d="M1391.17,489.9c0-7.3-.21-12.07-.41-16.33h13.29l.51,9.13h.4c2.54-7.2,8.62-10.24,13.39-10.24a16,16,0,0,1,3.24.2v14.51a21.37,21.37,0,0,0-4.15-.41c-5.68,0-9.54,3-10.55,7.81a18.36,18.36,0,0,0-.31,3.45v25.15h-15.41Z"/><path class="cls-1" d="M1456.79,523.17l-.91-5h-.31c-3.24,4-8.31,6.09-14.2,6.09-10,0-16-7.31-16-15.22,0-12.88,11.56-19.07,29.11-19v-.71c0-2.64-1.42-6.39-9-6.39a27.85,27.85,0,0,0-13.69,3.75l-2.84-9.94c3.45-1.93,10.24-4.36,19.27-4.36,16.53,0,21.8,9.74,21.8,21.4V511.1a77.72,77.72,0,0,0,.71,12.07ZM1455,499.74c-8.11-.1-14.4,1.83-14.4,7.81,0,4,2.64,5.88,6.09,5.88a8.41,8.41,0,0,0,8-5.68,11.15,11.15,0,0,0,.3-2.63Z"/></svg>