<svg id="juan" xmlns="http://www.w3.org/2000/svg" viewBox="0 0 1920 1080"><defs><style>.cls-1{fill:#3fbeea;}</style></defs><path class="cls-1" d="M917.83,454.81h15.41V498c0,19.47-9.33,26.27-24.34,26.27a40.09,40.09,0,0,1-11.26-1.63l1.73-12.47a25.43,25.43,0,0,0,7.91,1.22c6.49,0,10.55-3,10.55-13.6Z"/><path class="cls-1" d="M992.37,507.25c0,6.49.21,11.76.41,15.92H979.39l-.71-7h-.3c-1.93,3.05-6.6,8.12-15.52,8.12-10,0-17.45-6.29-17.45-21.61V473.57h15.52v26.68c0,7.2,2.33,11.56,7.71,11.56a8.31,8.31,0,0,0,7.71-5.37,8.75,8.75,0,0,0,.51-3.35V473.57h15.51Z"/><path class="cls-1" d="M1032.94,523.17l-.91-5h-.31c-3.24,4-8.31,6.09-14.19,6.09-10,0-16-7.31-16-15.22,0-12.88,11.56-19.07,29.11-19v-.71c0-2.64-1.42-6.39-9-6.39a27.89,27.89,0,0,0-13.69,3.75l-2.84-9.94c3.45-1.93,10.24-4.36,19.27-4.36,16.53,0,21.81,9.74,21.81,21.4V511.1a76.49,76.49,0,0,0,.71,12.07Zm-1.82-23.43c-8.12-.1-14.41,1.83-14.41,7.81,0,4,2.64,5.88,6.09,5.88a8.41,8.41,0,0,0,8-5.68,11.15,11.15,0,0,0,.31-2.63Z"/><path class="cls-1" d="M1058.3,489.4c0-6.19-.21-11.46-.41-15.83h13.39l.71,6.8h.3a18.17,18.17,0,0,1,15.32-7.91c10.14,0,17.75,6.69,17.75,21.3v29.41h-15.42V495.68c0-6.39-2.23-10.75-7.81-10.75a8.25,8.25,0,0,0-7.81,5.78,10.78,10.78,0,0,0-.61,3.86v28.6H1058.3Z"/></svg>