<svg id="tagline" xmlns="http://www.w3.org/2000/svg" viewBox="0 0 1920 1080"><defs><style>.cls-1{fill:#3fbeea;}</style></defs><path class="cls-1" d="M915.41,566.78l-8.47,44.59H899.2l8.47-44.59Z"/><path class="cls-1" d="M916,611.37l4.17-22.23c.79-3.84,1.26-7.21,1.65-10h6.82L928,585h.14c3-4.36,7.07-6.55,11.57-6.55s8.2,2.78,8.2,8.87a31.8,31.8,0,0,1-.59,5.36l-3.57,18.72H936l3.44-18.2a24.13,24.13,0,0,0,.4-3.83c0-2.65-1-4.63-4-4.63-3.51,0-8,4.23-9.4,11.77l-2.78,14.89Z"/><path class="cls-1" d="M968.85,570.29l-1.65,8.86h7.27l-1.19,6h-7.21l-2.58,13a28.9,28.9,0,0,0-.53,4.56,2.52,2.52,0,0,0,2.85,2.84,17.1,17.1,0,0,0,2.64-.13l-.72,6a17.42,17.42,0,0,1-5,.66c-5.29,0-7.67-2.91-7.67-6.61a27,27,0,0,1,.72-6l2.78-14.36h-4.36l1.12-6h4.37l1.32-6.94Z"/><path class="cls-1" d="M999.34,609.51A25.74,25.74,0,0,1,988,612c-8.93,0-13.23-5.43-13.23-13.3,0-9.72,7.14-20.31,18.26-20.31,6.34,0,10.38,3.71,10.38,9.07,0,8.26-8.67,10.91-21.1,10.65a8.9,8.9,0,0,0,.86,4.56c1.26,2.18,3.57,3.31,6.61,3.31a19.08,19.08,0,0,0,8.87-2.12ZM992,584.18c-4.83,0-8,4.3-8.93,8.2,7.94.13,13-1,13-4.83C996.1,585.44,994.45,584.18,992,584.18Z"/><path class="cls-1" d="M1005.76,611.37l9-47h7.67l-8.93,47Z"/><path class="cls-1" d="M1022.23,611.37l6.08-32.22h7.74l-6.15,32.22Zm7.34-41a4.58,4.58,0,0,1,4.63-4.7,4,4,0,0,1,4.1,4.17,4.58,4.58,0,0,1-4.76,4.63A3.82,3.82,0,0,1,1029.57,570.42Z"/><path class="cls-1" d="M1040,617.12a19.16,19.16,0,0,0,8.53,1.92c5,0,8.86-2.38,10.45-9.86l.79-3.64h-.13c-2.64,3.84-6,5.69-10.12,5.69-6.42,0-10-5.29-10.12-11.37,0-10.72,7.74-21.44,21.1-21.44a28.54,28.54,0,0,1,11.18,2.25l-4.89,26.59c-1.2,6.29-3,11.32-6.62,14.36-3.37,2.78-7.94,3.57-12,3.57s-7.94-.86-10.06-2.18Zm23.28-31.88a10.56,10.56,0,0,0-4.23-.8c-6.75,0-11.51,7.28-11.51,14.23-.07,3.37,1.32,6.54,5.16,6.54s7.67-4.56,8.79-10.38Z"/><path class="cls-1" d="M1099.88,609.51a25.74,25.74,0,0,1-11.37,2.52c-8.93,0-13.23-5.43-13.23-13.3,0-9.72,7.14-20.31,18.25-20.31,6.35,0,10.39,3.71,10.39,9.07,0,8.26-8.67,10.91-21.1,10.65a8.9,8.9,0,0,0,.86,4.56c1.25,2.18,3.57,3.31,6.61,3.31a19.08,19.08,0,0,0,8.87-2.12Zm-7.34-25.33c-4.83,0-8,4.3-8.93,8.2,7.94.13,13-1,13-4.83C1096.64,585.44,1095,584.18,1092.54,584.18Z"/><path class="cls-1" d="M1106.3,611.37l4.17-22.23c.79-3.84,1.25-7.21,1.65-10h6.81l-.66,5.82h.13c3-4.36,7.08-6.55,11.58-6.55s8.2,2.78,8.2,8.87a31.8,31.8,0,0,1-.59,5.36L1134,611.37h-7.67l3.44-18.2a24.13,24.13,0,0,0,.4-3.83c0-2.65-1-4.63-4-4.63-3.5,0-8,4.23-9.39,11.77L1114,611.37Z"/><path class="cls-1" d="M1165.7,610.24a21.85,21.85,0,0,1-9.26,1.79c-8.07,0-13-5.16-13-12.84,0-11.24,8.53-20.77,20.5-20.77a17.47,17.47,0,0,1,6.55,1.26l-2,6a11.43,11.43,0,0,0-4.82-1c-7.48,0-12.18,6.88-12.18,13.56,0,4.83,2.78,7.54,7.08,7.54a16.5,16.5,0,0,0,6.88-1.52Z"/><path class="cls-1" d="M1171.12,611.37l6.09-32.22h7.73l-6.15,32.22Zm7.34-41a4.58,4.58,0,0,1,4.63-4.7,4,4,0,0,1,4.1,4.17,4.58,4.58,0,0,1-4.76,4.63A3.82,3.82,0,0,1,1178.46,570.42Z"/><path class="cls-1" d="M1208.76,611.37c.06-1.92.33-4.5.59-7.28h-.2c-3.17,5.95-7.4,8-11.51,8-5.75,0-9.52-4.5-9.52-11,0-11,7.67-22.69,22.69-22.69a34.37,34.37,0,0,1,9.72,1.46l-3.31,16.8a75.71,75.71,0,0,0-1.32,14.69Zm3.17-26.66a12.78,12.78,0,0,0-3.17-.33c-7.15,0-12.64,8-12.64,15.34,0,3.38,1.26,6.16,4.63,6.16,3.57,0,7.94-4.5,9.46-12.71Z"/><path class="cls-1" d="M1268,610a30,30,0,0,1-11.65,2c-11.57,0-19-7.15-19-18.72,0-9.26,4-17.14,10.45-22a26.76,26.76,0,0,1,16.6-5.3c4.9,0,8.47,1.2,9.73,2.06l-2.25,6.21a19.31,19.31,0,0,0-8.4-1.58,17.36,17.36,0,0,0-11.38,4.1c-3.9,3.44-6.41,9.06-6.41,15.54,0,7.48,3.83,13.1,12.63,13.1a22,22,0,0,0,8.93-1.72Z"/><path class="cls-1" d="M1273.18,611.37l3.77-19.85c.86-4.56,1.26-9.46,1.66-12.37h6.68c-.2,2.18-.4,4.43-.73,6.81h.2c2.18-4.36,5.69-7.54,10.12-7.54a13.12,13.12,0,0,1,1.65.14L1295,586.1a8.72,8.72,0,0,0-1.46-.14c-5.49,0-9,5.56-10.25,12.44l-2.45,13Z"/><path class="cls-1" d="M1321.14,609.51a25.81,25.81,0,0,1-11.38,2.52c-8.93,0-13.23-5.43-13.23-13.3,0-9.72,7.14-20.31,18.26-20.31,6.35,0,10.38,3.71,10.38,9.07,0,8.26-8.66,10.91-21.1,10.65a8.9,8.9,0,0,0,.86,4.56c1.26,2.18,3.57,3.31,6.61,3.31a19.08,19.08,0,0,0,8.87-2.12Zm-7.35-25.33c-4.83,0-8,4.3-8.93,8.2,7.94.13,13-1,13-4.83C1317.89,585.44,1316.24,584.18,1313.79,584.18Z"/><path class="cls-1" d="M1348.72,611.37c.06-1.92.33-4.5.59-7.28h-.2c-3.17,5.95-7.4,8-11.51,8-5.75,0-9.52-4.5-9.52-11,0-11,7.67-22.69,22.69-22.69a34.37,34.37,0,0,1,9.72,1.46l-3.31,16.8a75.71,75.71,0,0,0-1.32,14.69Zm3.17-26.66a12.78,12.78,0,0,0-3.17-.33c-7.15,0-12.64,8-12.64,15.34,0,3.38,1.26,6.16,4.63,6.16,3.58,0,7.94-4.5,9.46-12.71Z"/><path class="cls-1" d="M1379.74,570.29l-1.66,8.86h7.28l-1.19,6H1377l-2.58,13a28.9,28.9,0,0,0-.53,4.56,2.52,2.52,0,0,0,2.85,2.84,17.1,17.1,0,0,0,2.64-.13l-.73,6a17.3,17.3,0,0,1-5,.66c-5.3,0-7.68-2.91-7.68-6.61a26.46,26.46,0,0,1,.73-6l2.78-14.36h-4.37l1.13-6h4.36l1.33-6.94Z"/><path class="cls-1" d="M1385.29,611.37l6.09-32.22h7.74L1393,611.37Zm7.35-41a4.57,4.57,0,0,1,4.63-4.7,4,4,0,0,1,4.1,4.17,4.59,4.59,0,0,1-4.76,4.63A3.81,3.81,0,0,1,1392.64,570.42Z"/><path class="cls-1" d="M1411.55,579.15l2,16c.4,3.84.8,6.28.93,8.4h.2c.79-2,1.72-4.37,3.51-8.2l8-16.21h8.53l-17.92,32.22h-7.74l-5.49-32.22Z"/><path class="cls-1" d="M1453.82,611.37c.07-1.92.33-4.5.6-7.28h-.2c-3.18,5.95-7.41,8-11.51,8-5.76,0-9.53-4.5-9.53-11,0-11,7.68-22.69,22.69-22.69a34.39,34.39,0,0,1,9.73,1.46l-3.31,16.8a74.17,74.17,0,0,0-1.32,14.69Zm3.18-26.66a12.93,12.93,0,0,0-3.18-.33c-7.14,0-12.63,8-12.63,15.34,0,3.38,1.25,6.16,4.63,6.16,3.57,0,7.94-4.5,9.46-12.71Z"/></svg>