<svg xmlns="http://www.w3.org/2000/svg" xmlns:xlink="http://www.w3.org/1999/xlink" viewBox="0 0 550 310"><defs><style>.cls-1{fill:none;}.cls-2{fill:#ffce00;}.cls-3{fill:#00001e;}.cls-4{fill:#d6a200;}.cls-5{fill:#e24157;}.cls-6{isolation:isolate;}.cls-7{clip-path:url(#clip-path);}.cls-8{fill:#8d103e;}.cls-9{fill:#4c3933;}.cls-10{fill:#00cebb;}.cls-11{clip-path:url(#clip-path-2);}.cls-12{clip-path:url(#clip-path-3);}.cls-13{fill:#b1174f;}.cls-14{clip-path:url(#clip-path-4);}.cls-15{fill:#fff;}.cls-16{fill:#001d26;}.cls-16,.cls-17,.cls-19{fill-rule:evenodd;}.cls-17{fill:#00c8ff;}.cls-18{fill:url(#Degradado_sin_nombre_2);}.cls-19{fill:#f37021;}</style><clipPath id="clip-path"><path d="M97,197.62a.4.4,0,0,1-.15,0,.49.49,0,0,1-.33-.63h0a13.16,13.16,0,0,0,.25-5.74.6.6,0,0,1,0-.23l5.58-17.58a.51.51,0,0,1,.52-.35.5.5,0,0,1,.46.43,14,14,0,0,1-.28,6.2l-5.58,17.58A.49.49,0,0,1,97,197.62Zm.79-6.44c.06.45.11.89.14,1.32l4.16-13.12a11,11,0,0,0,.45-3.18Z"/></clipPath><clipPath id="clip-path-2"><path d="M256.71,152.2h-.12a.5.5,0,0,1-.38-.58,14.53,14.53,0,0,1,.54-2.3l5.57-17.58h0a.51.51,0,0,1,1,.3h0a15,15,0,0,0-.51,2.15s0,.05,0,.08l-5.58,17.58A.51.51,0,0,1,256.71,152.2Z"/></clipPath><clipPath id="clip-path-3"><path d="M305.49,177.35a.39.39,0,0,1-.15,0,.5.5,0,0,1-.33-.64l.48.16-.48-.16v0h0L310.6,159a.51.51,0,1,1,1,.31l0,.07L306,177A.5.5,0,0,1,305.49,177.35Z"/></clipPath><clipPath id="clip-path-4"><path class="cls-1" d="M37.75,166.81q2.79-8.79,5.57-17.59a16.24,16.24,0,0,0-.72,4.36L37,171.16A16.1,16.1,0,0,1,37.75,166.81Z"/></clipPath><radialGradient id="Degradado_sin_nombre_2" cx="-598.46" cy="793.93" r="2.73" gradientTransform="matrix(12.28, 0, 0, -12.59, 7843.33, 10201.04)" gradientUnits="userSpaceOnUse"><stop offset="0" stop-color="#360100" stop-opacity="0.85"/><stop offset="0.77" stop-color="#360100"/></radialGradient></defs><g id="Capa_4" data-name="Capa 4"><rect class="cls-2" width="550" height="310"/><rect class="cls-3" x="450.5" width="99.5" height="310"/></g><g id="fondo_2" data-name="fondo 2"><path class="cls-4" d="M406.35,151.55a.29.29,0,0,0,0-.09v-.05a.41.41,0,0,0-.05-.09l0,0v0a.3.3,0,0,0-.08-.08h0L373,125.7l1.53-4.81v-.09s0,0,0,0l5.74-7.67a.48.48,0,0,0,.08-.16L386,95.36s0,0,0,0a.49.49,0,0,0,0-.12v-.06a.38.38,0,0,0,0-.1.14.14,0,0,0,0-.06,0,0,0,0,0,0,0l-.05-.06s0,0,0,0a.58.58,0,0,0-.12-.1h0l-.12,0h-.12l-27.89,2.21a.5.5,0,0,0-.39.24l-12.81,20.69-8.08-18.9a.5.5,0,0,0-.5-.31l-21.16,1.67a.5.5,0,0,0-.13,0h0l-.09,0,0,0-.07.07s0,0,0,0h0v0a.35.35,0,0,0,0,.08l-4.68,14.77a41.07,41.07,0,0,0-15.15-10.3c-6.09-2.31-13.52-3.13-22.1-2.46-11,.88-18.66,4-22.71,9.21a15.17,15.17,0,0,0-2.41,4.59s0,0,0,0l-2.26,7.14-.78-.43-.13,0h-.2a.34.34,0,0,0-.14,0h0l0,0a.87.87,0,0,0-.11.09s0,0,0,0a.64.64,0,0,0-.08.14h0l-4.64,14.63L210.76,108.7a.53.53,0,0,0-.41-.16l-22.87,1.81h0l-.09,0-.08,0-.08,0-.06.06,0,.07-.05.09s0,0,0,0l-5.57,17.58a.61.61,0,0,0,0,.13L180,154.49h0l-.24,1.59-6.82-5.9a36.32,36.32,0,0,0-4.4-3.08,34.62,34.62,0,0,0-4.41-2.45.48.48,0,0,0-.49.06l-3.06,2.2,3.37-10.65c.06-.18.13-.35.19-.53a11.66,11.66,0,0,0-.84-8.09,19.69,19.69,0,0,0-7-8.49A25,25,0,0,0,145.79,115a48.63,48.63,0,0,0-7.13-.46c-2.45,0-5.27.12-8.39.37L95.5,117.62l-.13,0h0l-.09,0,0,0a.23.23,0,0,0-.07.07l0,0h0a0,0,0,0,0,0,0s0,0,0,.08l-4.78,15.08a41.18,41.18,0,0,0-15.44-10.58c-6.08-2.31-13.51-3.14-22.09-2.46-11,.87-18.66,4-22.71,9.21a15.2,15.2,0,0,0-3.13,8.53q-2.2,6.92-4.39,13.83a16.53,16.53,0,0,0-.44,1.78l-.76,2.42a.5.5,0,0,0,.4.65l9.14,1.49-1.74,5.49a.77.77,0,0,0,0,.15A30.23,30.23,0,0,0,31.82,175a38.4,38.4,0,0,0,12.11,15.85c.5.38,1,.74,1.49,1.09l.27.19,1.44,1,.27.18c.5.32,1,.63,1.5.92l.08.05c.49.28,1,.56,1.47.82l.24.13c.49.26,1,.51,1.47.74l.3.14c.5.24,1,.47,1.54.7l.15.06,1.06.43.36.14,1,.37.23.08c.41.14.83.27,1.24.39l.35.1.94.25.59.16c.68.16,1.4.31,2.14.45l.42.07.33.05c.49.09,1,.17,1.48.24l.57.07.56.06,1.2.14.65.05.6,0,1.17.08h.17l.78,0,.74,0,.71,0H74l1.5-.05.56,0,.53,0c.9,0,1.8-.1,2.68-.17,6.11-.48,10.94-1.59,14.34-3.28.34-.17.69-.36,1.11-.6l.41-.24.21-.13.18-.12.11-.08c.23-.15.46-.3.68-.46l.48-.36a7.79,7.79,0,0,0,.63-.51l.44-.37.58-.57.09-.09c.1-.1.2-.19.3-.3a8.14,8.14,0,0,0,.54-.63l.1-.11.17-.19.06-.09c.18-.23.34-.47.51-.71l.09-.13.16-.23c.24-.39.47-.77.66-1.14s.32-.65.5-1.05l.09-.23.09-.24.12-.3c.07-.18.13-.37.19-.56l2.44-7.68,6.85,3.15,1.78-2.62,5,11.7h0a.39.39,0,0,0,.06.11h0a.44.44,0,0,0,.15.12l.07,0a1.21,1.21,0,0,0,.23.05h0v-.09h0l20.69-1.59a.46.46,0,0,0,.44-.33l5.46-17.19L158,183.44l-.5,3.31L163,188l.16-3.34L183.6,183a.5.5,0,0,0,.45-.35l1-3.14-.35,6.65h0a.77.77,0,0,0,0,.15s0,0,0,0a.39.39,0,0,0,.08.14h0a.61.61,0,0,0,.16.12l.06,0,.08,0h.14L206.55,185a.51.51,0,0,0,.44-.35l2.84-8.95,19.84-1.57,7,8.28.1.08.07.05a.54.54,0,0,0,.22.05h0L259,180.84a.48.48,0,0,0,.44-.35l1.49-4.7.05,0c.49.23,1,.46,1.48.67l0,0,.2.09,1,.4.37.14,1.06.38.2.07,1.25.39.34.1,1,.26.58.15c.68.16,1.4.32,2.13.45l.43.07.42.07c.46.08.91.16,1.38.22l.58.07.57.07,1.18.13.67.05.56,0,1.19.08.18,0,.77,0,.75,0,.71,0h2.5c.52,0,1,0,1.57-.05h.51l.51,0c.9,0,1.8-.1,2.68-.17,6.12-.49,10.94-1.59,14.34-3.29.34-.17.7-.36,1.11-.6l.42-.24.21-.13.18-.12.12-.08c.23-.15.45-.3.66-.46l.5-.36c.21-.16.41-.33.61-.5s.3-.25.45-.39.38-.36.57-.55l.09-.09.31-.31c.18-.2.36-.41.53-.62l.1-.11c.06-.07.12-.13.17-.2l.06-.08c.18-.23.35-.48.51-.72l.09-.13a1.88,1.88,0,0,0,.16-.23c.25-.38.47-.76.67-1.14s.32-.65.49-1.05l.09-.23.1-.24c0-.1.08-.2.11-.29s.13-.37.17-.51l0,0,1.45-4.58,10.07-.61,5.73,13.4h0a.41.41,0,0,0,.07.11h0a.4.4,0,0,0,.16.13s0,0,0,0a.58.58,0,0,0,.19,0h0l21.16-1.65a.52.52,0,0,0,.45-.34l5.57-17.58a.43.43,0,0,0,0-.11h0a.43.43,0,0,0,0-.22h0l0-.06,18.61,16.25.08,0,.05,0a.49.49,0,0,0,.2.05h0l25.82-2a.53.53,0,0,0,.45-.36l5.57-17.58h0s0,0,0,0,0-.08,0-.11Zm-318.7,6.27H87.6a.34.34,0,0,0-.14,0h0a.34.34,0,0,0-.15.07h0l-.08.06a0,0,0,0,0,0,0,.54.54,0,0,0-.1.16v0h0l-3,9.45s0,0,0,0L60.42,153.82v3.75a21,21,0,0,1-1.1-2.34A31.87,31.87,0,0,1,57.83,151l.13,0,.51.12.44.11c.33.09.66.19,1.07.33l.2.06,1,.39.3.12.36.17.31.15.36.18.31.16.35.2.31.18.33.2.49.32A18.29,18.29,0,0,1,67.72,157h0l.11.08.05,0a.5.5,0,0,0,.21,0h.13l17.15-4.65a.52.52,0,0,0,.35-.34l4.56-14.37,9.28,21.72ZM145,171.22l-.79-1.84,1.78-1.29Zm150.71-27.75-.09,0h0a.71.71,0,0,0-.14.1.08.08,0,0,1,0,0,.28.28,0,0,0-.08.15h0a7.18,7.18,0,0,1-.9,1.93c-1.21,1.76-3.77,2.81-7.6,3.11a17.32,17.32,0,0,1-10.71-2.4c-2.46-1.53-4.75-4.29-6.81-8.24l1.48-4.65.41-.06.33,0,.87-.09,1-.05h.46c.26,0,.53,0,.8,0h.17l.63.05.28,0,.51.06.32,0,.47.08.33.07.46.1.09,0,.39.1c.33.09.67.19,1.07.33l.2.07c.34.12.67.24,1,.38l.29.13.36.16.33.16.34.17.33.17.33.19.32.19.33.2.48.31a18.66,18.66,0,0,1,3.44,3.26h0a.41.41,0,0,0,.11.07s0,0,.06.05a.65.65,0,0,0,.2,0h.13l17.16-4.65a.54.54,0,0,0,.35-.34L309.62,121l11.49,26.9-.58,1.83-4.11-1.22a20.91,20.91,0,0,0,.4-7.59.49.49,0,0,0-.43-.44l-5.14-.73h-.19Z"/><polygon class="cls-5" points="102.3 176.01 102.9 176.42 102.6 179.83 100.59 182.29 100.21 181.37 102.3 176.01"/><g class="cls-6"><path d="M97,197.62a.4.4,0,0,1-.15,0,.49.49,0,0,1-.33-.63h0a13.16,13.16,0,0,0,.25-5.74.6.6,0,0,1,0-.23l5.58-17.58a.51.51,0,0,1,.52-.35.5.5,0,0,1,.46.43,14,14,0,0,1-.28,6.2l-5.58,17.58A.49.49,0,0,1,97,197.62Zm.79-6.44c.06.45.11.89.14,1.32l4.16-13.12a11,11,0,0,0,.45-3.18Z"/><g class="cls-7"><g class="cls-6"><path class="cls-8" d="M102.54,179.53,97,197.11a13.44,13.44,0,0,0,.27-6l5.57-17.58a13.44,13.44,0,0,1-.27,6"/><path d="M97,197.62a.4.4,0,0,1-.15,0,.49.49,0,0,1-.33-.63h0a13.16,13.16,0,0,0,.25-5.74.6.6,0,0,1,0-.23l5.58-17.58a.51.51,0,0,1,.52-.35.5.5,0,0,1,.46.43,14,14,0,0,1-.28,6.2l-5.58,17.58h0A.49.49,0,0,1,97,197.62Zm.79-6.44c.06.45.11.89.14,1.32l4.16-13.12a11,11,0,0,0,.45-3.18Z"/></g></g></g><polygon class="cls-9" points="400.71 110.44 395.13 128.02 378.84 149.79 384.41 132.21 400.71 110.44"/><path d="M378.84,150.3a.46.46,0,0,1-.23-.06.51.51,0,0,1-.26-.6l5.58-17.58a.35.35,0,0,1,.07-.15l16.3-21.78a.51.51,0,0,1,.64-.14.5.5,0,0,1,.25.6l-5.57,17.58a.48.48,0,0,1-.08.16l-16.3,21.77A.49.49,0,0,1,378.84,150.3Zm6-17.85-4.64,14.64,14.45-19.3,4.64-14.65Z"/><polygon class="cls-9" points="343.21 147.25 337.64 164.83 324.3 133.62 329.88 116.04 343.21 147.25"/><path d="M337.64,165.34a.5.5,0,0,1-.47-.31l-13.33-31.21a.47.47,0,0,1,0-.35l5.57-17.59a.52.52,0,0,1,.46-.35.49.49,0,0,1,.49.31l13.34,31.21a.53.53,0,0,1,0,.35L338.12,165a.5.5,0,0,1-.46.36Zm-12.8-31.75,12.73,29.78,5.1-16.09L330,117.49Z"/><polygon class="cls-10" points="400.71 110.44 384.41 132.21 389.29 135.97 343.21 147.25 329.88 116.04 351.04 114.36 359.5 134.17 372.82 112.64 400.71 110.44"/><path d="M343.21,147.76a.51.51,0,0,1-.47-.31l-13.33-31.21a.55.55,0,0,1,0-.47.52.52,0,0,1,.4-.24L351,113.86a.5.5,0,0,1,.5.31l8.08,18.9,12.81-20.69a.49.49,0,0,1,.39-.24l27.89-2.21a.52.52,0,0,1,.48.26.5.5,0,0,1,0,.55l-16,21.37,4.48,3.45a.51.51,0,0,1,.19.51.52.52,0,0,1-.38.39l-46.08,11.28Zm-12.59-31.27,12.89,30.16,44.64-10.93-4-3.11a.51.51,0,0,1-.1-.7L399.63,111l-26.51,2.1-13.19,21.31a.52.52,0,0,1-.47.24.51.51,0,0,1-.43-.31l-8.32-19.47Z"/><polygon class="cls-5" points="389.29 135.97 383.72 153.55 337.64 164.83 343.21 147.25 389.29 135.97"/><path d="M337.64,165.34a.51.51,0,0,1-.37-.16.52.52,0,0,1-.12-.5l5.58-17.58a.5.5,0,0,1,.36-.34l46.08-11.29a.5.5,0,0,1,.49.15.51.51,0,0,1,.12.5L384.2,153.7a.5.5,0,0,1-.36.34l-46.08,11.28Zm6-17.67-5.22,16.45,44.93-11,5.22-16.45Z"/><polygon class="cls-9" points="371.82 148.39 366.25 165.98 359.27 175.64 364.84 158.06 371.82 148.39"/><path d="M359.27,176.15a.59.59,0,0,1-.23-.05.52.52,0,0,1-.26-.61l5.58-17.58a.51.51,0,0,1,.07-.15l7-9.66a.51.51,0,0,1,.64-.16.5.5,0,0,1,.25.61l-5.57,17.58a.61.61,0,0,1-.07.14l-7,9.67A.49.49,0,0,1,359.27,176.15Zm6-17.86-4.59,14.49,5.08-7,4.59-14.48Z"/><polygon class="cls-9" points="395.26 168.86 389.68 186.44 366.25 165.98 371.82 148.39 395.26 168.86"/><path d="M389.68,187a.51.51,0,0,1-.33-.13l-23.44-20.46a.51.51,0,0,1-.15-.54l5.57-17.58a.52.52,0,0,1,.35-.33.5.5,0,0,1,.47.1l23.44,20.47a.5.5,0,0,1,.15.53l-5.57,17.58a.5.5,0,0,1-.35.34Zm-22.85-21.14,22.6,19.74L394.67,169l-22.6-19.73Z"/><polygon class="cls-5" points="421.07 166.82 415.5 184.4 389.68 186.44 395.26 168.86 421.07 166.82"/><path d="M389.68,187a.49.49,0,0,1-.39-.19.5.5,0,0,1-.09-.47l5.57-17.59a.53.53,0,0,1,.45-.35l25.81-2a.52.52,0,0,1,.44.19.5.5,0,0,1,.09.47L416,184.55a.5.5,0,0,1-.45.35l-25.82,2Zm6-17.61-5.24,16.53,24.72-2,5.24-16.54Z"/><polygon class="cls-5" points="370.3 170.83 364.72 188.41 343.56 190.08 349.14 172.5 370.3 170.83"/><path d="M343.56,190.59a.5.5,0,0,1-.48-.66l5.57-17.58a.49.49,0,0,1,.45-.35l21.15-1.68a.52.52,0,0,1,.44.19.5.5,0,0,1,.09.47l-5.58,17.59a.51.51,0,0,1-.44.35l-21.16,1.67Zm6-17.61-5.25,16.54,20.07-1.59,5.24-16.53Z"/><polygon class="cls-9" points="349.14 172.5 343.56 190.08 334.81 169.59 340.38 152.01 349.14 172.5"/><path d="M343.56,190.59a.5.5,0,0,1-.46-.31l-8.76-20.49a.53.53,0,0,1,0-.35l5.58-17.59a.51.51,0,0,1,.46-.35.49.49,0,0,1,.49.31l8.75,20.49a.5.5,0,0,1,0,.36l-5.57,17.58a.52.52,0,0,1-.46.35Zm-8.21-21,8.14,19.07,5.11-16.1-8.15-19.07Z"/><polygon class="cls-10" points="386.94 140.56 421.07 166.82 395.26 168.86 371.82 148.39 364.84 158.06 370.3 170.83 349.14 172.5 340.38 152.01 386.94 140.56"/><path d="M349.14,173a.5.5,0,0,1-.47-.31l-8.76-20.49a.54.54,0,0,1,0-.43.53.53,0,0,1,.33-.27l46.55-11.45a.54.54,0,0,1,.43.09l34.14,26.26a.51.51,0,0,1,.18.55.5.5,0,0,1-.45.36l-25.81,2a.53.53,0,0,1-.38-.12l-23-20.1-6.48,9,5.34,12.5a.5.5,0,0,1,0,.46.54.54,0,0,1-.4.25L349.18,173Zm-8.06-20.65L349.46,172l20.09-1.59-5.18-12.12a.5.5,0,0,1,.06-.5l7-9.66a.5.5,0,0,1,.35-.21.51.51,0,0,1,.39.12l23.28,20.32,24.29-1.91-32.9-25.31Z"/><polygon class="cls-5" points="325.55 132.3 319.97 149.88 302.82 154.53 308.39 136.95 325.55 132.3"/><path d="M302.82,155a.52.52,0,0,1-.37-.16.5.5,0,0,1-.11-.5l5.57-17.58a.5.5,0,0,1,.35-.34l17.15-4.65a.49.49,0,0,1,.5.14.49.49,0,0,1,.12.5L320.46,150a.53.53,0,0,1-.36.34L303,155Zm6-17.67-5.2,16.43,16-4.34L324.78,133Z"/><path class="cls-9" d="M304.86,133.6l-.35-.23-.14-.09-.36-.22-.31-.18-.36-.2-.32-.17-.36-.18-.33-.16L302,132l-.22-.1-.08,0-1-.4-.2-.06c-.36-.12-.73-.24-1.1-.34L299,131l-.19,0-.49-.11-.33-.07-.49-.08-.32-.05-.52-.07-.3,0c-.21,0-.24,0-.45,0h-1.67c-.35,0-.71.08-1.07.1s-.6,0-.88,0a2.35,2.35,0,0,0-.27,0c-.2,0-.39,0-.58.06l-.31.06-.5.09-.32.08-.44.11-.31.09-.4.13-.31.12-.37.14-.29.14-.34.16-.28.15-.31.17-.1.06-.16.11-.29.2-.24.18-.27.22-.22.2-.25.23-.2.22-.22.25-.1.12-.09.13-.14.18-.2.3-.11.19a3.9,3.9,0,0,0-.19.35l-.09.16c-.08.18-.17.36-.24.54a1.43,1.43,0,0,0-.08.22,1.55,1.55,0,0,0-.08.23l-5.58,17.58c.05-.15.11-.3.17-.45s.15-.36.24-.54a1.19,1.19,0,0,0,.08-.16c.07-.12.13-.24.2-.35a1.74,1.74,0,0,1,.11-.18,3.28,3.28,0,0,1,.2-.31l.13-.18.2-.25.22-.25.2-.22.25-.23.22-.2.26-.22.24-.18.3-.2.25-.16.32-.18.27-.15.35-.16.29-.13c.12-.06.25-.1.37-.15l.3-.11.41-.13.31-.1.44-.11.32-.08.49-.1.32-.06.56-.08.28,0c.29,0,.59-.07.89-.09s.71,0,1.07,0H289c.35,0,.7,0,1,0h.18l.64.05.3,0,.52.07.33.05.49.08.33.07.48.11.49.12c.38.1.74.22,1.1.34l.21.07c.34.12.69.25,1,.39l.31.13.36.17.34.16.35.18.34.18.34.19.33.19.34.21.49.32a18.39,18.39,0,0,1,3.54,3.35L308.39,137A18.68,18.68,0,0,0,304.86,133.6Z"/><path d="M302.82,155a.46.46,0,0,1-.38-.18A18.66,18.66,0,0,0,299,151.6l-.48-.31-.33-.2-.32-.19-.33-.19-.33-.17-.34-.17-.33-.16-.36-.16-.29-.13c-.33-.14-.66-.26-1-.38l-.2-.07c-.4-.14-.74-.24-1.07-.33l-.39-.1-.09,0-.46-.1-.33-.07-.47-.08-.32-.05-.51-.06-.28,0-.63,0H290c-.27,0-.54,0-.81,0h-.45l-1,0-.87.09-.33.05-.49.07-.19,0-.19,0-.4.08-.2,0-.16,0-.37.1-.2.06-.1,0-.39.13-.21.07-.08,0-.36.14-.21.1-.06,0-.33.15-.24.13-.31.18-.23.15-.29.19-.22.17-.25.21-.21.18-.23.22-.18.2-.21.23L280,152l-.12.16-.19.29-.11.17-.18.32-.08.16c-.08.16-.15.33-.22.51s0,.41,0,.41h.1c-.43.26-.48.41-.75.32a.52.52,0,0,1-.38-.63l5.54-17.58c0-.09,0-.17.07-.26l.09-.23a5.79,5.79,0,0,1,.25-.57l.09-.18.2-.37.1-.16.24-.36.14-.2,0,0,.07-.09.08-.1,0,0,.24-.28.21-.22.27-.26.23-.21.29-.23.25-.19.31-.21.06,0,.11-.08.08,0,.36-.21.05,0,.24-.13.34-.16.07,0,.25-.11.37-.15.08,0,.26-.1.36-.11.15-.05.24-.07.36-.09.09,0,.33-.08.34-.06.17,0,.21,0,.11,0,.37,0,.23,0h.27l.42,0h.49l.41,0q.33,0,.69-.06h2.17l.22,0h.09l.54.06.31.05.53.09.34.07.5.11.19.05.31.08c.35.09.72.21,1.13.35l.21.07c.35.12.71.26,1.05.4l.32.14.37.17.34.16.38.19.32.17.38.21.31.19.37.22.15.09.35.24a19.43,19.43,0,0,1,3.64,3.44.52.52,0,0,1,.1.48l-5.58,17.59a.51.51,0,0,1-.38.34Zm-13.66-7.51.86,0,.18,0,.66,0,.3,0,.55.07.27,0H292a4.37,4.37,0,0,1,.5.09l.35.06.49.11.09,0,.42.1c.34.09.7.2,1.13.35l.21.07c.35.12.7.26,1,.4l.31.14.38.17.34.16.37.19.34.18.35.2a3.79,3.79,0,0,1,.34.2l.35.21.51.33a17.5,17.5,0,0,1,3,2.76l5.21-16.45a17.7,17.7,0,0,0-3.24-3l-.34-.22-.14-.09-.35-.21-.3-.18-.35-.2-.31-.16-.35-.18-.33-.15-.35-.16-.3-.13c-.33-.14-.66-.27-1-.39l-.19-.06c-.4-.14-.75-.24-1.07-.33l-.48-.12-.47-.1-.32-.07-.48-.08-.32-.05c-.16,0-.33,0-.5-.06l-.29,0h-.08l-.08,0c-.07,0-.15,0-.27,0h-.09l-.29,0h-.22a1,1,0,0,1-.24,0,1.3,1.3,0,0,0-.25,0h-.42l-.12,0a4,4,0,0,0-.58.07c-.15,0-.3-.05-.46,0s-.21-.08-.32-.08h-.25c-.1,0-.2.1-.29.12s-.1,0-.14,0l-.13,0-.26,0-.3,0-.12,0-.18,0-.18,0a2.47,2.47,0,0,0-.29.06l-.28.06-.13,0-.33.09-.21.06-.15.05-.33.1-.22.09-.07,0-.35.14-.22.1-.06,0-.32.15-.21.11-.06,0-.29.17-.24.16L287,133l-.22.17-.25.21a1.71,1.71,0,0,0-.2.18,2.39,2.39,0,0,0-.23.22,1.8,1.8,0,0,0-.19.2,2.2,2.2,0,0,0-.2.23l-.19.24-.12.16c-.06.1-.13.19-.19.28l-.1.17c-.07.11-.12.22-.18.33l-.08.16c-.08.16-.16.33-.23.5s0,.14-.08.2-.05.14-.07.21l-4.42,14h0l.24-.21.28-.24.26-.19.31-.21.27-.18.34-.19.28-.15.37-.18.05,0,.25-.11.35-.14.11,0a1.84,1.84,0,0,1,.25-.09,2.29,2.29,0,0,1,.37-.12l.14,0,.23-.07.4-.1.16,0L285,148l.43-.08.18,0,.22,0,.52-.08.17,0,.18,0,.91-.09c.37,0,.73,0,1.09-.05Z"/><g class="cls-6"><path d="M256.71,152.2h-.12a.5.5,0,0,1-.38-.58,14.53,14.53,0,0,1,.54-2.3l5.57-17.58h0a.51.51,0,0,1,1,.3h0a15,15,0,0,0-.51,2.15s0,.05,0,.08l-5.58,17.58A.51.51,0,0,1,256.71,152.2Z"/><g class="cls-11"><g class="cls-6"><path class="cls-8" d="M262.28,134.11l-5.57,17.58a15.06,15.06,0,0,1,.52-2.23l5.58-17.58a14.79,14.79,0,0,0-.53,2.23"/><path d="M256.71,152.2h-.12a.5.5,0,0,1-.38-.58,14.53,14.53,0,0,1,.54-2.3l5.57-17.58h0a.51.51,0,0,1,1,.3v0a14.53,14.53,0,0,0-.51,2.14s0,.05,0,.08l-5.58,17.58A.51.51,0,0,1,256.71,152.2Z"/></g></g></g><polygon class="cls-9" points="286.06 147.13 280.48 164.72 256.71 151.69 262.28 134.11 286.06 147.13"/><path d="M280.48,165.22a.5.5,0,0,1-.24-.06l-23.78-13a.52.52,0,0,1-.24-.6L261.8,134a.5.5,0,0,1,.73-.29l23.77,13a.52.52,0,0,1,.24.6L281,164.87a.51.51,0,0,1-.29.32A.63.63,0,0,1,280.48,165.22Zm-23.16-13.77L280.18,164l5.26-16.59-22.86-12.53Z"/><path class="cls-10" d="M287.5,118.4q12.83-1,21.88,2.42a41,41,0,0,1,16.17,11.48L308.39,137a16.66,16.66,0,0,0-9.06-5.88,17.74,17.74,0,0,0-6.13-.55q-7.12.55-9,5.3-1.46,3.52,1.55,10.58c.11.25.22.49.32.73l-23.77-13a14.58,14.58,0,0,1,2.87-6.7Q271.12,119.7,287.5,118.4Z"/><path d="M286.05,147.64a.53.53,0,0,1-.24-.06l-23.77-13a.53.53,0,0,1-.26-.53,15.12,15.12,0,0,1,3-6.93c4.05-5.24,11.7-8.34,22.71-9.21,8.58-.67,16,.15,22.1,2.46A41.61,41.61,0,0,1,325.93,132a.52.52,0,0,1-.25.83l-17.15,4.65a.51.51,0,0,1-.52-.16,18.65,18.65,0,0,0-3.43-3.26,18.1,18.1,0,0,0-5.38-2.46,17.52,17.52,0,0,0-6-.54c-4.58.36-7.39,2-8.59,5-.92,2.21-.4,5.64,1.55,10.19.09.22.19.43.28.64a.5.5,0,0,1,.09.29.51.51,0,0,1-.51.51Zm-23.21-13.8L285,146c-1.87-4.57-2.29-8-1.3-10.35,1.34-3.34,4.52-5.23,9.45-5.62a18.46,18.46,0,0,1,6.3.57,18.91,18.91,0,0,1,5.68,2.6,18.49,18.49,0,0,1,3.43,3.2L324.62,132A40.49,40.49,0,0,0,309.2,121.3c-5.94-2.26-13.23-3.06-21.66-2.39-10.72.84-18.12,3.81-22,8.81A14.18,14.18,0,0,0,262.84,133.84Z"/><g class="cls-6"><path d="M305.49,177.35a.39.39,0,0,1-.15,0,.5.5,0,0,1-.33-.64l.48.16-.48-.16v0h0L310.6,159a.51.51,0,1,1,1,.31l0,.07L306,177A.5.5,0,0,1,305.49,177.35Z"/><g class="cls-12"><g class="cls-6"><path class="cls-8" d="M311.06,159.26l-5.57,17.59,0-.07,5.57-17.58a.14.14,0,0,1,0,.06"/><path d="M305.49,177.35a.39.39,0,0,1-.15,0,.5.5,0,0,1-.33-.64l.48.16-.48-.16v0h0L310.6,159a.51.51,0,1,1,1,.31l0,.07L306,177A.5.5,0,0,1,305.49,177.35Z"/></g></g></g><polygon class="cls-9" points="235.26 157.03 229.69 174.61 214.14 156.33 219.71 138.75 235.26 157.03"/><path d="M229.69,175.12a.53.53,0,0,1-.39-.18l-15.55-18.28a.53.53,0,0,1-.1-.48l5.58-17.59a.51.51,0,0,1,.87-.17l15.55,18.28a.52.52,0,0,1,.1.48l-5.58,17.58a.5.5,0,0,1-.38.35Zm-15-18.91,14.77,17.37,5.21-16.44-14.77-17.37Z"/><path class="cls-10" d="M259,138.89l24.37,13.34q3.43,7.25,7.72,9.89a17.71,17.71,0,0,0,11,2.48q6-.48,8-3.33a7.57,7.57,0,0,0,1-2.07l15.33-3.76,5.14.72A17.78,17.78,0,0,1,330,166.62a15.88,15.88,0,0,1-7.29,6.84q-5,2.52-14.15,3.24a61.66,61.66,0,0,1-19.14-1.07,43,43,0,0,1-15.85-7.8,37.71,37.71,0,0,1-11.94-15.65C259.47,147.15,258.62,142.72,259,138.89Z"/><path d="M302,177.48a54.93,54.93,0,0,1-12.66-1.35,43.7,43.7,0,0,1-16-7.89,38.42,38.42,0,0,1-12.11-15.86c-2.17-5.08-3-9.64-2.61-13.55a.5.5,0,0,1,.27-.4.52.52,0,0,1,.47,0l24.37,13.35a.49.49,0,0,1,.22.23c2.23,4.71,4.76,8,7.52,9.67a17.32,17.32,0,0,0,10.71,2.4c3.83-.3,6.39-1.35,7.6-3.11a7.18,7.18,0,0,0,.9-1.93.53.53,0,0,1,.36-.35l15.33-3.76a.59.59,0,0,1,.19,0l5.14.73a.5.5,0,0,1,.43.44,18.37,18.37,0,0,1-1.61,10.76,16.48,16.48,0,0,1-7.52,7.06c-3.39,1.69-8.22,2.8-14.33,3.28C306.29,177.38,304.06,177.48,302,177.48ZM259.48,139.7c-.23,3.57.65,7.7,2.6,12.28a37.44,37.44,0,0,0,11.79,15.45,42.72,42.72,0,0,0,15.66,7.71,61.57,61.57,0,0,0,19,1.05c6-.47,10.68-1.54,14-3.18a15.47,15.47,0,0,0,7.07-6.62,17.05,17.05,0,0,0,1.54-9.78l-4.65-.66-14.95,3.67a7.72,7.72,0,0,1-1,1.93c-1.39,2-4.2,3.23-8.35,3.56a18.32,18.32,0,0,1-11.32-2.56c-2.9-1.79-5.54-5.14-7.84-10Z"/><path class="cls-9" d="M330.94,164.33a9.94,9.94,0,0,1-.35,1,3.05,3.05,0,0,1-.13.32,10.39,10.39,0,0,1-.47,1c-.2.38-.41.75-.64,1.11l-.24.33c-.16.24-.32.47-.5.7l-.32.39-.51.6-.39.38-.55.54-.43.37-.6.49-.47.34q-.33.24-.66.45l-.61.39-.29.17c-.35.2-.71.4-1.08.58q-5,2.52-14.15,3.24c-.91.07-1.8.13-2.67.17l-.79,0-1.79.06h-2.49l-1,0-1.4-.05-1.35-.1L296,176.7c-.46,0-.91-.1-1.37-.15l-.93-.11c-.5-.07-1-.16-1.48-.24-.24,0-.49-.07-.72-.12-.72-.13-1.42-.28-2.11-.45l-.55-.14-1-.26-.32-.09-1.23-.39-.2-.07-1.05-.38-.36-.13-1-.42-.2-.09c-.49-.21-1-.43-1.49-.67l-.28-.13c-.49-.24-1-.48-1.46-.74L280,172c-.49-.27-1-.54-1.47-.83l-.06,0c-.5-.3-1-.6-1.49-.92l-.27-.17c-.48-.31-1-.63-1.43-1l-.26-.19c-.49-.34-1-.7-1.48-1.07a37.71,37.71,0,0,1-11.94-15.65c-2.15-5-3-9.46-2.58-13.29l-5.57,17.58q-.65,5.76,2.57,13.29A37.73,37.73,0,0,0,268,185.41c.49.37,1,.73,1.47,1.07l.27.19c.47.33.95.65,1.42,1l.12.08.17.11c.48.31,1,.61,1.47.9l.09.06c.48.28.95.54,1.43.8l.25.14,1.45.73.3.14,1.47.66.05,0,.2.08,1,.39.37.14,1,.38.2.07c.41.14.82.27,1.24.39l.32.09.95.26.23.06.35.09c.68.16,1.39.31,2.11.44.23.05.47.08.7.12.5.08,1,.17,1.5.24l.9.11c.46.05.93.11,1.41.15.32,0,.66.05,1,.08l1.4.1H293l1.17,0,1.05,0c.48,0,1,0,1.47,0h1l1.73-.06.85,0c.87,0,1.76-.1,2.66-.17q9.12-.72,14.15-3.23c.38-.19.74-.39,1.09-.59l.28-.17.33-.19.29-.2.65-.44.48-.35c.2-.16.4-.32.59-.49s.3-.24.44-.37l.55-.53.38-.39.52-.6.26-.3.06-.09c.17-.22.33-.45.49-.69a4.15,4.15,0,0,0,.24-.34c.23-.36.45-.73.65-1.1s.32-.67.47-1c0-.11.08-.22.13-.33s.11-.27.16-.42a4.72,4.72,0,0,0,.18-.53h0Q328.16,173.12,330.94,164.33Z"/><path d="M295.84,195.05h-.6l-.71,0-.75,0-.77,0-.18,0-1.19-.08-.56,0-.67-.05-1.18-.13-.57-.07-.58-.07c-.47-.06-.92-.14-1.38-.22l-.42-.07-.43-.07c-.73-.14-1.45-.29-2.13-.45l-.59-.15-1-.26-.33-.1c-.42-.12-.83-.25-1.25-.39l-.21-.07-1.05-.38-.37-.14-1-.41-.2-.08-.05,0c-.5-.21-1-.44-1.48-.67l-.31-.15c-.49-.23-1-.48-1.46-.74l-.26-.13c-.48-.26-1-.53-1.45-.82l-.09,0c-.5-.29-1-.6-1.49-.91l-.29-.19-1.43-1-.27-.19c-.5-.35-1-.71-1.48-1.08A38.27,38.27,0,0,1,255.58,170c-2.17-5.08-3.05-9.63-2.62-13.55,0,0,0-.06,0-.1l5.58-17.58a.51.51,0,0,1,.59-.34.5.5,0,0,1,.39.55c-.41,3.74.45,8.13,2.54,13a37.44,37.44,0,0,0,11.79,15.45l1.46,1.06.26.18c.47.33.94.65,1.41,1l.27.17c.49.31,1,.62,1.48.91l-.2.47.26-.44c.48.29,1,.56,1.45.82l.23.12c.48.26,1,.5,1.44.73l.28.13c.49.24,1,.46,1.47.67l.19.08,1,.41.34.13,1,.38.2.07,1.22.38.31.09,1,.26.15,0,.4.1c.66.16,1.36.31,2.08.44l.41.07.47.08,1.3.2.57.07.59.07,1.12.13.7.05.61.05,1.07.07,1.19,0,.55,0,.63,0c.21,0,.42.09.63.09l1.09.08h.37c.13,0,.25-.08.38-.09.56,0,1.14-.07,1.72-.1l.39,0,.45,0c.87,0,1.77-.1,2.66-.17,6-.48,10.68-1.55,14-3.19.32-.16.66-.34,1-.57l.26-.15.62-.39c.22-.14.43-.29.64-.44l.46-.34c.2-.15.39-.31.58-.47l.42-.36c.18-.17.36-.34.53-.52l.1-.09.27-.28c.18-.19.34-.38.5-.58l.12-.13.19-.24c.17-.22.33-.45.48-.67l.1-.15.13-.18a11.65,11.65,0,0,0,.62-1.06c.15-.29.29-.6.45-1l.09-.21,0-.11c.13-.34.24-.62.34-.92h0a.5.5,0,0,1,1,.3v0l-5.57,17.57a.17.17,0,0,1,0,.05c0,.14-.1.32-.17.5a2.49,2.49,0,0,1-.11.29l-.1.25-.09.23a11.63,11.63,0,0,1-.5,1.05c-.19.38-.42.76-.66,1.14a1.88,1.88,0,0,1-.16.23l-.09.13c-.17.24-.33.48-.51.72l-.06.08a1.54,1.54,0,0,1-.17.19l-.1.12c-.17.21-.35.42-.54.62a2.91,2.91,0,0,1-.3.31l-.09.09c-.19.19-.37.37-.57.55l-.45.39c-.2.17-.4.34-.61.5l-.5.36c-.21.16-.44.31-.66.46l-.12.07a1.18,1.18,0,0,1-.18.13l-.22.13-.41.24c-.41.24-.77.43-1.11.6-3.4,1.7-8.22,2.8-14.34,3.29l-2.68.17-.51,0h-.51c-.53,0-1.05,0-1.57,0h-1.9ZM254,156.57c-.41,3.73.45,8.1,2.54,13A37.36,37.36,0,0,0,268.3,185c.48.36,1,.71,1.46,1.06l.26.19,1.41.94.28.18c.48.31,1,.61,1.45.9l.1.05c.47.27.94.54,1.41.79l.25.14c.48.25.95.49,1.43.72l.3.14c.48.23,1,.45,1.44.65l.06,0,.19.08,1,.39.37.14,1,.37.21.07,1.21.38.32.09.94.26.56.14c.67.16,1.37.31,2.09.44l.4.07.43.07,1.35.22.55.06.58.07,1.15.13.65.05.57,0,1.16.08h.18c.24,0,.5,0,.75,0l.75,0,.69,0h2.47l1.55-.05.52,0,.49,0c.89,0,1.78-.1,2.65-.17,6-.47,10.69-1.54,14-3.18.33-.16.67-.34,1.07-.57l.41-.24.19-.12.13-.09.15-.1c.21-.13.42-.28.62-.42l.47-.35.58-.46.42-.37c.18-.16.36-.34.53-.51l.1-.1.27-.28c.17-.19.34-.38.5-.58l.13-.14.12-.15s0-.06.06-.08c.16-.21.32-.44.47-.66l.11-.15c0-.06.09-.12.13-.19.22-.35.43-.71.62-1.06s.29-.6.45-1a1.8,1.8,0,0,0,.08-.21l.11-.26c0-.08.07-.16.1-.25s.12-.34.17-.51v0l3.95-12.44,0,.06-.11.12c-.17.21-.35.42-.53.62s-.2.21-.31.31l-.09.09c-.18.19-.37.37-.57.55l-.44.39-.62.5-.49.36c-.22.16-.45.31-.68.46l-.62.39-.3.18c-.42.24-.77.43-1.11.6-3.39,1.69-8.22,2.8-14.33,3.28l-2.69.18h-.47l-.38,0-1.74.05h-3.16l-.54,0-1.21-.05-1.1-.07-.6-.05-.72,0-1.15-.13-.59-.07-.59-.07c-.45-.06-.89-.14-1.33-.21l-.45-.08-.44-.07c-.74-.14-1.46-.29-2.14-.45l-.42-.11-.14,0q-.5-.12-1-.27l-.32-.09q-.63-.18-1.26-.39l-.2-.07-1.06-.38-.36-.14-1.06-.43-.2-.08c-.5-.21-1-.44-1.5-.68l-.29-.13c-.49-.24-1-.49-1.48-.75l-.23-.13c-.5-.26-1-.54-1.49-.83l-.06,0c-.5-.29-1-.6-1.5-.92l-.28-.18-1.44-1-.26-.19c-.5-.35-1-.71-1.49-1.08a38.42,38.42,0,0,1-12.11-15.86,32,32,0,0,1-2.67-10.06Z"/><polygon class="cls-5" points="263.87 164.57 258.29 182.16 220.71 175.32 226.29 157.74 263.87 164.57"/><path d="M258.29,182.66h-.09l-37.58-6.84a.5.5,0,0,1-.34-.24.46.46,0,0,1-.05-.41l5.57-17.59a.51.51,0,0,1,.58-.34L264,164.08a.48.48,0,0,1,.34.23.52.52,0,0,1,.05.42l-5.57,17.58A.52.52,0,0,1,258.29,182.66Zm-36.92-7.74,36.57,6.66L263.21,165l-36.57-6.65Z"/><polygon class="cls-10" points="225.62 124.28 263.87 164.57 226.29 157.74 235.26 157.03 219.71 138.75 220.33 156.71 201.21 153.28 202.75 126.08 225.62 124.28"/><path d="M263.87,165.08h-.09l-37.58-6.83a.51.51,0,0,1,.05-1l8-.63-14-16.41.56,16.4a.5.5,0,0,1,0,.12.48.48,0,0,1-.51.5h-.1l-19.12-3.43a.51.51,0,0,1-.41-.53l1.53-27.19a.5.5,0,0,1,.46-.48l22.88-1.81a.53.53,0,0,1,.41.16l38.25,40.3a.49.49,0,0,1,.07.59A.51.51,0,0,1,263.87,165.08Zm-33.65-7.14,32.21,5.86-37-39-22.19,1.76-1.48,26.3,18.05,3.24-.6-17.34a.53.53,0,0,1,.33-.49.51.51,0,0,1,.57.15l15.55,18.28a.52.52,0,0,1,.08.52.49.49,0,0,1-.43.31Z"/><polygon class="cls-5" points="220.33 156.71 214.76 174.29 195.64 170.86 201.21 153.28 220.33 156.71"/><path d="M214.76,174.8h-.09l-19.12-3.43a.5.5,0,0,1-.34-.24.46.46,0,0,1-.05-.41l5.57-17.59a.5.5,0,0,1,.57-.34l19.12,3.43a.5.5,0,0,1,.39.65l-5.57,17.58A.51.51,0,0,1,214.76,174.8Zm-18.46-4.34,18.11,3.25,5.26-16.61-18.11-3.24Z"/><polygon class="cls-9" points="201.21 153.28 195.64 170.86 197.17 143.67 202.75 126.08 201.21 153.28"/><path d="M195.64,171.37h-.09a.52.52,0,0,1-.42-.53l1.53-27.19a.61.61,0,0,1,0-.13l5.57-17.58a.51.51,0,0,1,.58-.34.49.49,0,0,1,.41.52l-1.53,27.2a.5.5,0,0,1,0,.12L196.12,171A.49.49,0,0,1,195.64,171.37Zm2-27.61-1.3,23.11,4.34-13.69,1.3-23.1Z"/><polygon class="cls-9" points="257.82 179.72 252.25 197.3 245.12 188.83 250.69 171.25 257.82 179.72"/><path d="M252.25,197.81a.53.53,0,0,1-.39-.18l-7.13-8.48a.52.52,0,0,1-.1-.48l5.58-17.58a.49.49,0,0,1,.38-.34.5.5,0,0,1,.49.17l7.13,8.47a.5.5,0,0,1,.09.48l-5.57,17.58a.52.52,0,0,1-.38.35Zm-6.56-9.1,6.35,7.56,5.21-16.44-6.35-7.55Z"/><polygon class="cls-5" points="279.77 177.99 274.2 195.57 252.25 197.3 257.82 179.72 279.77 177.99"/><path d="M252.25,197.81a.51.51,0,0,1-.4-.19.5.5,0,0,1-.09-.47l5.58-17.58a.5.5,0,0,1,.44-.36l22-1.73a.52.52,0,0,1,.44.19.5.5,0,0,1,.09.47l-5.58,17.58a.48.48,0,0,1-.44.35l-22,1.74Zm5.95-17.61L253,196.74l20.86-1.65,5.24-16.54Z"/><polygon class="cls-5" points="250.69 171.25 245.12 188.83 221.31 190.71 226.89 173.13 250.69 171.25"/><path d="M221.31,191.22a.47.47,0,0,1-.39-.2.48.48,0,0,1-.09-.46L226.4,173a.53.53,0,0,1,.45-.35l23.8-1.88a.51.51,0,0,1,.53.66L245.6,189a.49.49,0,0,1-.44.35l-23.81,1.88Zm6-17.61L222,190.14l22.71-1.79L250,171.81Z"/><polygon class="cls-10" points="207.41 157.22 226.6 160.67 228.04 160.89 229.79 161.22 270.92 168.65 279.77 177.99 257.82 179.72 250.69 171.25 226.89 173.13 227.31 182.13 206 183.82 207.41 157.22"/><path d="M206,184.32a.54.54,0,0,1-.36-.14.52.52,0,0,1-.15-.39l1.42-26.6a.52.52,0,0,1,.19-.37.49.49,0,0,1,.41-.1l19.18,3.45,1.43.22,1.77.34L271,168.15a.55.55,0,0,1,.28.15l8.85,9.34a.49.49,0,0,1,.11.53.5.5,0,0,1-.44.32l-21.95,1.74a.55.55,0,0,1-.43-.18l-7-8.28-23.05,1.82.4,8.52a.51.51,0,0,1-.47.53L206,184.32Zm1.89-26.5-1.35,25.44,20.24-1.6-.4-8.51a.52.52,0,0,1,.47-.53l23.8-1.88a.52.52,0,0,1,.43.18l7,8.27,20.63-1.63-8-8.44-41-7.39-1.75-.34-1.43-.22Z"/><polygon class="cls-5" points="227.31 182.13 221.74 199.71 200.43 201.4 206 183.82 227.31 182.13"/><path d="M200.42,201.91a.47.47,0,0,1-.39-.2.49.49,0,0,1-.09-.47l5.57-17.58a.53.53,0,0,1,.45-.35l21.31-1.68a.47.47,0,0,1,.44.19.48.48,0,0,1,.09.46l-5.58,17.59a.51.51,0,0,1-.44.35l-21.32,1.68Zm6-17.61-5.24,16.53,20.22-1.6,5.24-16.53Z"/><polygon class="cls-9" points="206 183.82 200.43 201.4 201.84 174.8 207.41 157.22 206 183.82"/><path d="M200.43,201.91h-.1a.5.5,0,0,1-.41-.53l1.41-26.6a.79.79,0,0,1,0-.13l5.57-17.58a.51.51,0,0,1,.58-.34.49.49,0,0,1,.41.52l-1.41,26.6a.5.5,0,0,1,0,.13l-5.57,17.58A.52.52,0,0,1,200.43,201.91Zm1.91-27-1.2,22.56,4.35-13.73,1.21-22.56Z"/><path class="cls-13" d="M157.53,146c-.08-.19-.18-.37-.27-.56l-.09-.16c-.07-.13-.15-.25-.23-.37a1.63,1.63,0,0,0-.11-.17c-.08-.12-.18-.24-.27-.36l-.09-.12a5.66,5.66,0,0,0-.4-.44l-.1-.1-.35-.32-.16-.12-.35-.26-.16-.11-.08-.06-.31-.18-.18-.11-.6-.3-.13-.05c-.18-.08-.37-.15-.58-.22l-.07,0c-.17-.05-.35-.11-.54-.15a.61.61,0,0,0-.13,0l-.22-.05-.62-.12-.24,0-.9-.1h0l-.74-.05h-1.7l-.83,0-.38,0c-.41,0-.83,0-1.27.08l-9.41.74-5.57,17.58,9.4-.74,1.28-.08.39,0,.82,0h1.51c.32,0,.64,0,.94.06h0c.31,0,.61.06.9.11l.24,0,.62.12.21,0c.24.05.47.12.69.18l.06,0a6.37,6.37,0,0,1,.7.27l.61.3.19.12c.13.07.25.15.37.23l.17.11.34.26.16.13.35.31.1.1a5.48,5.48,0,0,1,.4.44l.1.12.27.36c0,.06.07.12.11.17s.15.25.22.37l.1.17c.09.18.18.36.26.56a3.59,3.59,0,0,1,.22,2.59q2.79-8.79,5.57-17.58A3.62,3.62,0,0,0,157.53,146Z"/><path d="M152.17,166.71l-.15,0a.5.5,0,0,1-.33-.64,3.18,3.18,0,0,0-.2-2.24c-.08-.18-.16-.36-.25-.53l-.09-.15a3.13,3.13,0,0,0-.21-.34l-.1-.16c-.08-.11-.16-.23-.25-.34l-.09-.11a4.61,4.61,0,0,0-.37-.4l-.09-.09-.32-.29-.15-.12a3.33,3.33,0,0,0-.32-.24l-.16-.11-.35-.21-.08-.05-.1-.06a5.85,5.85,0,0,0-.56-.28,6.44,6.44,0,0,0-.66-.25l-.06,0a6,6,0,0,0-.64-.18l-.21,0-.59-.11-.23,0c-.28,0-.57-.08-.88-.1l-.95-.06h-.35c-.37,0-.74,0-1.14,0l-.8,0-.39,0c-.41,0-.82,0-1.26.08l-9.4.74a.53.53,0,0,1-.44-.19.5.5,0,0,1-.08-.47l5.57-17.58a.49.49,0,0,1,.44-.35l9.41-.75,1.29-.08h1.22l.42,0h0c.27,0,.51,0,.75,0h.57c.25,0,.5,0,.75.05v.5l.05-.51.93.11.24,0,.64.12.38.08.56.17.08,0c.22.07.43.15.62.23l.14.06c.22.1.43.21.64.32l.12.07.15.09.24.14.26.18.38.28.16.14c.13.11.26.22.38.34l.11.1c.15.15.29.31.43.47l.1.13.29.39.12.18.24.4.1.18c.1.19.2.39.29.59a4.22,4.22,0,0,1,.23,3l-5.57,17.57h0A.5.5,0,0,1,152.17,166.71Zm-9.48-8.22h1.13c.33,0,.65,0,1,.06s.68.07,1,.11l.25,0,.65.12.22,0,.72.2.06,0a6.7,6.7,0,0,1,.76.29l.64.32.14.08.06,0,.4.24.18.13.37.27.17.14.38.34.1.1a4.91,4.91,0,0,1,.43.48l.1.12c.11.13.2.26.3.4l.1.15.26.42.09.18a5.55,5.55,0,0,1,.29.6l.06.14,4.78-15.08a3.16,3.16,0,0,0-.2-2.25c-.08-.18-.16-.35-.25-.52l-.06-.1,0,0a3.79,3.79,0,0,0-.2-.34l-.11-.16c-.08-.12-.16-.23-.25-.34l-.08-.11c-.12-.14-.24-.28-.37-.41l-.09-.08-.33-.3-.12-.09-.35-.27-.15-.1,0,0-.22-.13-.26-.15c-.18-.1-.37-.2-.57-.29l-.12-.05-.54-.2-.07,0c-.16-.05-.32-.1-.5-.14l-.34-.08-.59-.11-.23,0-.87-.11v-.51l-.05.51-.72-.05-.54,0c-.38,0-.78,0-1.12,0l-.82,0h-.37l-1.26.08-9.07.72-5.24,16.54,8.65-.69,1.29-.08h.4l.83,0Z"/><path class="cls-5" d="M178.62,151.44a3.05,3.05,0,0,1-.13.32c-.06.15-.14.3-.21.45l-.15.3c-.08.16-.18.31-.27.46l-.16.26c-.12.18-.24.35-.37.52l-.12.17c-.1.13-.21.25-.32.37a4.15,4.15,0,0,1-.27.32l-.37.36-.29.29-.45.39-.28.24c-.25.2-.52.39-.8.58l-.47.3-.26.15-.34.19-.29.15-.39.19-.31.15-.42.18-.33.14-.48.19-.34.13-.55.19-.34.12-.65.2-.29.09-1,.3-5.58,17.58,1-.29.35-.11.59-.19.38-.13.5-.18.38-.14.44-.17.36-.15.4-.18.33-.15.37-.18.3-.16.33-.18.27-.16.12-.07.35-.22c.28-.19.54-.39.8-.59l.2-.17c.18-.15.36-.3.53-.46l.22-.21.44-.44.21-.25c.12-.14.25-.28.36-.42l0,0,.1-.14c.13-.18.27-.36.39-.55l.15-.25c.1-.15.19-.31.28-.47s.1-.19.14-.29.15-.3.22-.46.09-.21.13-.32l.1-.24c0-.13.09-.26.13-.39l5.57-17.59A4.88,4.88,0,0,1,178.62,151.44Z"/><path d="M162.38,177.23a.5.5,0,0,1-.36-.16.49.49,0,0,1-.12-.5L167.47,159a.48.48,0,0,1,.35-.34l1-.29.29-.09.64-.21.34-.11.53-.19.34-.13.47-.18.32-.14a3,3,0,0,0,.41-.18l.31-.14.37-.18.28-.14.33-.19.25-.14.44-.28.78-.57.15-.13.22-.19.33-.28c.06,0,.11-.11.17-.17l.21-.21a3,3,0,0,0,.25-.25l.16-.18.19-.23.21-.24.11-.16a5.74,5.74,0,0,0,.36-.5l.09-.15.06-.1c.09-.14.17-.28.25-.43l.11-.22,0-.07.2-.42.12-.31c.07-.18.15-.37.21-.56v0a.5.5,0,0,1,.64-.32c.26.08.41.64.33.64h0l0,0-5.56,17.53c0,.14-.09.28-.14.42l-.06.16,0,.09-.13.33c-.07.17-.15.33-.23.49l0,.06c0,.08-.08.16-.13.24s-.19.33-.29.5l0,.08-.12.18c-.13.2-.27.39-.41.58l0,.05-.06.09-.31.37-.16.18-.15.17L171,173l-.13.12-.15.15c-.17.16-.36.31-.54.46l-.08.07-.14.11c-.26.21-.54.42-.83.62l-.36.23-.12.07-.29.17-.34.19-.31.16-.38.19-.34.15-.41.19-.37.15-.45.17-.38.15-.43.15-.47.16-.6.19-.36.12-1,.29Zm6-17.68L163.15,176l.09,0,.35-.11.58-.18.46-.16.41-.14.37-.14.43-.17.33-.14.41-.18.32-.15.36-.17.29-.15.32-.18.26-.15.12-.07.32-.21c.27-.19.53-.38.77-.57l.1-.08.1-.09c.18-.14.35-.28.51-.43l.11-.11.15-.15.37-.37.11-.13.18-.2c.08-.1.17-.2.25-.31l.11-.14c.13-.18.26-.35.38-.53a1,1,0,0,0,.08-.14l.06-.09c.09-.15.18-.3.26-.45l.11-.21,0-.07c.07-.14.14-.28.2-.43s.09-.2.13-.3l0-.11a.61.61,0,0,0,0-.12l.13-.37L177,154.93l0,0-.28.29-.2.19-.2.21-.37.31-.21.18-.18.15c-.27.21-.55.42-.83.61l-.49.31-.28.16-.35.2-.3.16-.4.19-.32.15-.44.19-.33.14-.49.19-.35.13-.55.2-.35.12-.66.21-.3.09Z"/><polygon class="cls-5" points="173.4 160.35 167.82 177.94 155.1 187.13 160.68 169.55 173.4 160.35"/><path d="M155.1,187.64a.55.55,0,0,1-.3-.09.52.52,0,0,1-.18-.57l5.57-17.58a.46.46,0,0,1,.19-.26l12.72-9.2a.53.53,0,0,1,.59,0,.51.51,0,0,1,.19.57l-5.57,17.58a.61.61,0,0,1-.19.26l-12.72,9.2A.53.53,0,0,1,155.1,187.64Zm6-17.77-5.06,15.95,11.34-8.2,5.06-16Z"/><path class="cls-9" d="M158,167.33l-.9-.74-.26-.21-.58-.46-.31-.23-.49-.36-.31-.22-.43-.29-.16-.1-.22-.14-.18-.11-.48-.28-.09-.05-.52-.27-.14-.06-.23-.11-.21-.08c-.23-.09-.45-.16-.68-.23l-.18,0-.45-.13h0l-.19,0-.46-.1-.26,0-.41-.07-.26,0-.41,0-.25,0h-1.18l-.84,0-2,.17-5.57,17.58,2-.16a8.19,8.19,0,0,1,.85,0H143l.29,0,.28,0,.39,0,.27,0c.14,0,.27,0,.41.06l.26,0,.43.1.22,0,.43.11.25.07.68.23.44.19.14.06.52.27.08.05.49.28.18.12.37.23.44.3.31.22.48.35.32.24c.18.13.37.28.55.43l.29.23.9.75,2.65,2.21,5.57-17.58Z"/><path d="M155.1,187.64a.47.47,0,0,1-.32-.12l-2.66-2.21c-.31-.27-.6-.51-.89-.74l-.28-.23-.55-.43-.31-.23-.48-.35-.3-.21-.43-.29-.35-.23-.19-.11-.47-.28.17-.49-.24.45-.5-.26-.09,0-.05,0-.41-.18c-.2-.07-.42-.15-.64-.21l-.29-.09-.36-.09-.21-.05-.42-.09-.2,0-.43-.07-.27,0-.37,0-.55,0h-.84l-.82,0-2,.16a.48.48,0,0,1-.44-.19.49.49,0,0,1-.08-.47l5.57-17.58a.52.52,0,0,1,.44-.35l2-.16c.29,0,.58,0,.87,0h.89l0,.51v-.51h.12l.37,0h0l.43,0,.27,0,.43.07.26,0,.48.1.2.05h0l.4.11.26.07.71.24.23.1.18.08.21.1a5.72,5.72,0,0,1,.55.28l.06,0,.52.31.57.36c.15.09.29.19.44.3l.33.22.49.36.32.24c.19.14.38.3.58.46l.27.21c.3.24.6.49.91.76l2.65,2.21a.52.52,0,0,1,.16.55l-5.57,17.58a.53.53,0,0,1-.35.33Zm-12.59-7.72h.54l.59,0,.41,0,.28,0,.42.07.27,0,.45.1.24,0,.39.11.14,0,.17.05c.24.07.47.15.7.24l.48.2.14.07.56.28.05,0c.19.1.36.2.53.31l.19.12.38.24.45.3.31.22.49.36.32.24.57.45.29.23.91.75,2.07,1.73,5.24-16.54-2.39-2-.9-.74-.26-.21-.57-.44-.31-.23-.47-.35-.29-.2c-.16-.12-.31-.21-.44-.3l-.54-.34-.47-.28.16-.49-.24.45c-.17-.1-.34-.18-.5-.26l-.2-.09-.15-.07-.19-.08-.65-.22-.25-.07-.35-.1-.24,0-.44-.09-.24,0c-.13,0-.26-.05-.39-.06l-.25,0-.4,0-.55,0h-.83l-.81,0-1.71.14L140,180.06l1.29-.1c.3,0,.59,0,.88,0Z"/><polygon class="cls-9" points="180.75 182.05 175.18 199.63 160.51 187.32 166.08 169.74 180.75 182.05"/><path d="M175.18,200.14a.55.55,0,0,1-.33-.12l-14.67-12.31a.5.5,0,0,1-.16-.54l5.58-17.58a.52.52,0,0,1,.34-.34.53.53,0,0,1,.47.1l14.67,12.31a.5.5,0,0,1,.15.54l-5.57,17.58a.52.52,0,0,1-.34.34Zm-14.09-13,13.83,11.6,5.24-16.53-13.83-11.6Z"/><polygon class="cls-5" points="204.37 180.13 198.79 197.71 175.18 199.63 180.75 182.05 204.37 180.13"/><path d="M175.18,200.14a.49.49,0,0,1-.4-.2.48.48,0,0,1-.09-.46l5.58-17.59a.51.51,0,0,1,.44-.35l23.61-1.92a.52.52,0,0,1,.44.19.5.5,0,0,1,.09.47l-5.57,17.58a.5.5,0,0,1-.45.35l-23.61,1.92Zm5.95-17.62-5.24,16.54,22.52-1.83,5.24-16.54Z"/><path class="cls-10" d="M179.13,160.35a32,32,0,0,1,4.34,2.42,36.3,36.3,0,0,1,4.34,3l16.56,14.33-23.62,1.92-14.67-12.31Z"/><path d="M180.75,182.55a.52.52,0,0,1-.33-.12l-14.67-12.3a.52.52,0,0,1-.18-.41.55.55,0,0,1,.21-.39l13.06-9.39a.48.48,0,0,1,.49-.06,33.75,33.75,0,0,1,4.41,2.46,36.83,36.83,0,0,1,4.4,3.08l16.56,14.32a.53.53,0,0,1,.15.54.52.52,0,0,1-.44.35l-23.62,1.92Zm-13.84-12.78,14,11.75,22.2-1.8-15.65-13.54a36,36,0,0,0-4.27-3,35.6,35.6,0,0,0-4-2.27Z"/><polygon class="cls-9" points="125.14 166.99 119.57 184.57 105.2 150.94 110.77 133.35 125.14 166.99"/><path d="M119.57,185.08a.5.5,0,0,1-.47-.31l-14.37-33.63a.5.5,0,0,1,0-.36l5.57-17.58a.51.51,0,0,1,.95,0l14.37,33.64a.53.53,0,0,1,0,.35l-5.57,17.58a.5.5,0,0,1-.46.36Zm-13.83-34.17,13.76,32.2L124.6,167l-13.76-32.21Z"/><polygon class="cls-5" points="148.17 170.83 142.59 188.41 119.57 184.57 125.14 166.99 148.17 170.83"/><path d="M142.59,188.92h-.08l-23-3.84a.52.52,0,0,1-.35-.23.56.56,0,0,1,0-.42l5.58-17.58a.5.5,0,0,1,.56-.35l23,3.84a.51.51,0,0,1,.35.24.46.46,0,0,1,.05.41l-5.57,17.59A.52.52,0,0,1,142.59,188.92Zm-22.36-4.75,22,3.67,5.27-16.6-22-3.68Z"/><path class="cls-10" d="M171.25,134.8a19.07,19.07,0,0,1,6.79,8.26q1.86,4.38.81,7.74a10.64,10.64,0,0,1-4.42,5.67,22.41,22.41,0,0,1-6.47,2.67,36,36,0,0,1,5.44,1.22l-12.73,9.19L158,167.33a21.5,21.5,0,0,0-5.51-3.71,12.92,12.92,0,0,0-5.62-.74l-2,.17,3.33,7.78-23-3.84-14.37-33.64,34.77-2.74a70,70,0,0,1,15.4.08A24.23,24.23,0,0,1,171.25,134.8Zm-13.74,14.37a3.48,3.48,0,0,0,0-3.15,7.11,7.11,0,0,0-3.75-3.74c-1.78-.8-4.58-1-8.4-.74l-9.41.74,4.51,10.56,9-.71a32.43,32.43,0,0,0,5.27-1.1,3.86,3.86,0,0,0,2.72-1.86"/><path d="M148.17,171.34h-.09l-23-3.84a.51.51,0,0,1-.39-.3l-14.36-33.64a.47.47,0,0,1,0-.46.49.49,0,0,1,.39-.24l34.77-2.75c3.12-.25,5.94-.37,8.39-.37a48.38,48.38,0,0,1,7.12.46,25,25,0,0,1,10.53,4.19,19.69,19.69,0,0,1,7,8.49,11.65,11.65,0,0,1,.84,8.09,11.24,11.24,0,0,1-4.62,5.93,19.18,19.18,0,0,1-4.6,2.12,32.79,32.79,0,0,1,3.43.86.53.53,0,0,1,.35.41.51.51,0,0,1-.21.49L161,170a.5.5,0,0,1-.62,0l-2.65-2.22a21.66,21.66,0,0,0-5.37-3.63,12.52,12.52,0,0,0-5.4-.7l-1.34.11,3,7.13a.51.51,0,0,1-.06.52A.53.53,0,0,1,148.17,171.34Zm-22.67-4.81,21.84,3.65-3-6.93a.51.51,0,0,1,.42-.71l2-.16a13.33,13.33,0,0,1,5.84.76,22.05,22.05,0,0,1,5.66,3.81l2.35,2,11.56-8.36a43.09,43.09,0,0,0-4.39-.91.51.51,0,0,1-.05-1,22.23,22.23,0,0,0,6.32-2.59,10.31,10.31,0,0,0,4.23-5.41,10.68,10.68,0,0,0-.8-7.39,18.65,18.65,0,0,0-6.61-8,23.38,23.38,0,0,0-10.1-4,46.32,46.32,0,0,0-7-.46c-2.42,0-5.22.13-8.31.37l-34.06,2.69Zm15-13.18A.5.5,0,0,1,140,153l-4.51-10.56a.47.47,0,0,1,0-.46.49.49,0,0,1,.39-.24l9.41-.75c3.9-.31,6.8,0,8.65.79a7.61,7.61,0,0,1,4,4,4,4,0,0,1,0,3.59,4.35,4.35,0,0,1-3.05,2.11,34,34,0,0,1-5.35,1.12l-9,.71Zm-3.76-10.62,4.09,9.58,8.67-.69a29.49,29.49,0,0,0,5.18-1.08,3.42,3.42,0,0,0,2.4-1.6,3,3,0,0,0,0-2.72,6.53,6.53,0,0,0-3.49-3.48c-1.68-.75-4.44-1-8.15-.7Z"/><polygon class="cls-9" points="139.43 189.08 133.86 206.66 126.15 188.61 131.72 171.03 139.43 189.08"/><path d="M133.86,207.17a.51.51,0,0,1-.47-.31l-7.71-18.05a.53.53,0,0,1,0-.35l5.57-17.59a.51.51,0,0,1,.46-.35.5.5,0,0,1,.49.31l7.71,18a.52.52,0,0,1,0,.35l-5.58,17.58a.5.5,0,0,1-.45.36Zm-7.17-18.59,7.1,16.62,5.1-16.1-7.1-16.62Z"/><polygon class="cls-5" points="160.12 187.44 154.55 205.02 133.86 206.66 139.43 189.08 160.12 187.44"/><path d="M133.86,207.17a.51.51,0,0,1-.48-.66L139,188.92a.52.52,0,0,1,.44-.35l20.69-1.63a.47.47,0,0,1,.44.19.48.48,0,0,1,.09.46L155,205.18a.51.51,0,0,1-.44.35l-20.69,1.63Zm5.95-17.61-5.24,16.53,19.6-1.55L159.41,188Z"/><polygon class="cls-10" points="131.72 171.03 154.75 174.87 160.12 187.44 139.43 189.08 131.72 171.03"/><path d="M139.43,189.58a.51.51,0,0,1-.46-.3l-7.71-18.05a.49.49,0,0,1,.07-.52.5.5,0,0,1,.48-.18l23,3.84a.51.51,0,0,1,.38.3l5.37,12.57a.53.53,0,0,1,0,.46.54.54,0,0,1-.4.25l-20.69,1.63Zm-6.87-17.9,7.2,16.86L159.38,187l-5-11.67Z"/><polygon class="cls-5" points="106.06 149.64 100.49 167.23 83.33 171.88 88.91 154.3 106.06 149.64"/><path d="M83.34,172.39a.52.52,0,0,1-.37-.16.49.49,0,0,1-.12-.5l5.57-17.59a.52.52,0,0,1,.36-.33l17.15-4.66a.52.52,0,0,1,.5.14.53.53,0,0,1,.12.51L101,167.38a.52.52,0,0,1-.35.34l-17.15,4.65Zm6-17.68L84.1,171.15l16-4.34,5.21-16.43Z"/><path class="cls-9" d="M85.37,150.94l-.35-.23-.14-.08-.35-.22-.31-.18-.36-.2-.32-.18-.37-.18-.33-.16-.37-.16-.22-.1-.08,0c-.34-.14-.68-.28-1-.4l-.2-.07c-.36-.12-.72-.23-1.1-.33l-.31-.08-.18-.05-.49-.11-.33-.06L78,148l-.32-.05-.52-.06-.3,0-.41,0h-.31a.48.48,0,0,0-.25,0,2.15,2.15,0,0,1-.62,0h-.47c-.35,0-.71,0-1.06,0s-.66.1-1,.13h-.3l-.54.07-.34.06-.47.09-.33.08-.43.11-.32.09-.39.13-.32.12-.36.14-.3.13-.33.16-.28.16-.32.17-.09.06a.91.91,0,0,0-.16.11l-.3.2-.24.18-.27.22-.21.19-.25.24-.2.21-.22.26-.11.12-.09.13-.13.18-.2.3-.12.19c-.06.11-.13.22-.19.34l-.09.17q-.12.26-.24.54l-.09.24h0a1.46,1.46,0,0,0-.07.19Q61.74,162.4,59,171.19h0c0-.15.1-.3.16-.44s.16-.36.24-.54l.09-.17a3.72,3.72,0,0,1,.19-.34l.12-.19.19-.3.14-.18.19-.25c.08-.08.15-.17.22-.25l.21-.22.24-.23.22-.2.27-.22.24-.18.29-.2.26-.17.31-.17.28-.15.34-.17.29-.13.38-.14.3-.12.41-.13.31-.09.44-.12.32-.07.49-.1.31-.06.58-.09.27,0,.89-.09,1.06-.05h.26c.35,0,.7,0,1,0h.13l.69.05.27,0,.54.07.31,0,.5.09.33.07.48.1.5.13c.37.1.74.21,1.1.34l.2.06,1,.4.3.13.37.17.32.15.38.19.31.17.36.2L79,168l.34.21.5.33a18.68,18.68,0,0,1,3.54,3.35l5.57-17.58A18.82,18.82,0,0,0,85.37,150.94Z"/><path d="M83.34,172.39a.53.53,0,0,1-.39-.18A18.29,18.29,0,0,0,79.52,169l-.49-.32-.33-.2-.31-.18-.35-.2-.31-.16-.36-.18-.31-.15-.36-.17-.3-.12q-.5-.21-1-.39l-.21-.06c-.4-.14-.74-.24-1.06-.33l-.44-.11-.51-.12-.32-.06-.49-.08-.3-.05-.53-.07-.26,0-.67-.05h-.13c-.26,0-.53,0-.8,0h-.47c-.34,0-.68,0-1,0s-.59.05-.87.09l-.26,0-.56.08-.18,0-.2,0-.4.08-.21.05-.15,0-.38.1-.18.05-.18.06-.32.1-.21.08-.08,0-.36.14-.23.1-.05,0-.32.15-.23.12-.32.19-.25.16-.27.18-.23.17-.25.2-.21.19-.22.22a1.8,1.8,0,0,0-.19.2,2.2,2.2,0,0,0-.2.23l-.19.23-.12.17-.18.28-.11.18a3.3,3.3,0,0,0-.18.32l-.08.15c-.08.17-.16.34-.23.51s-.05.27-.09.4,0,0,0,0h0c0,.22-.34.2-.57.19l0-.14h-.25v.24c-.43-.07-.43-.25-.43-.46h0V171h.15s0,0,0,0,0,0,0,0L64,153.43a1.67,1.67,0,0,1,.08-.2c0-.1.07-.18.1-.26s.17-.38.26-.57l.06-.12,0-.06.21-.36.11-.19.22-.33.15-.2.09-.13.08-.09,0,0,.24-.28.22-.22a3.19,3.19,0,0,1,.26-.26l.23-.21.29-.23a2.48,2.48,0,0,1,.26-.19l.31-.22,0,0,.12-.08.07,0,.36-.21,0,0,.25-.13.33-.16.07,0,.26-.12.35-.14.11,0,.25-.09.36-.11.12,0,.27-.08.32-.09.17,0,.29-.07.33-.06.16,0,.24,0,.1,0,.35,0,.22,0h.3l.34,0c.21,0,.43-.07.63-.08a5.17,5.17,0,0,1,.68,0c.1,0,.2-.15.3-.15l.58-.17h0c.18,0,.26.17.33.18s.09.08.21.06a1,1,0,0,1,.38,0l0,0h.2l.2,0,.28,0,.21,0h.1l.53.07.28,0h.05l.51.09.34.07.5.11.19,0,.31.09c.35.09.72.2,1.14.34l.2.07c.36.13.71.26,1.06.41l.31.13.38.17.34.17.37.18.33.18.37.21.32.19.36.22.15.09.36.23A19.12,19.12,0,0,1,89.29,154a.47.47,0,0,1,.1.48L83.82,172a.52.52,0,0,1-.38.35Zm-13.65-7.51.85,0h.09l.75.05.28,0,.56.07.32.05.52.09.33.07.5.11.51.13c.34.09.71.2,1.13.34l.21.08c.36.12.71.26,1.05.4l.31.13.39.18.31.15.4.2.32.17.37.21.33.19.35.22q.25.15.51.33a16.72,16.72,0,0,1,3,2.76l5.22-16.46a17.88,17.88,0,0,0-3.25-3l-.34-.23-.14-.08a3.13,3.13,0,0,0-.34-.21l-.31-.18-.35-.2-.31-.17-.35-.17-.32-.16-.36-.16-.3-.13-1-.38-.2-.06c-.39-.14-.75-.25-1.07-.33l-.3-.08-.18,0-.47-.11-.32-.06-.48-.09h0l-.26,0-.51-.07-.28,0-.23,0H76a1.28,1.28,0,0,1-.48,0H74.4a3.74,3.74,0,0,0-.58,0,5.17,5.17,0,0,0-.55.07l-.37,0h-.3l-.25,0a2.66,2.66,0,0,0-.28,0l-.1,0-.22,0-.17,0-.28,0-.28.07-.17,0-.29.07-.23.08-.13,0-.33.1-.21.08-.09,0-.34.14-.23.1-.06,0-.31.15-.22.11,0,0-.29.17-.25.15-.27.19a1.84,1.84,0,0,0-.22.17l-.26.2-.2.19a2.39,2.39,0,0,0-.23.22l-.18.19c-.08.08-.14.16-.21.24l-.18.23-.13.17-.18.28-.11.17-.18.32-.08.16a4.61,4.61,0,0,0-.22.51,1,1,0,0,0-.09.22.82.82,0,0,0-.06.19l-4.43,13.94h0l.24-.21.29-.23.25-.19.31-.21.28-.18.33-.19.29-.16.32-.15.08,0,.27-.11c.12-.06.24-.1.37-.15l.09,0,.24-.09.36-.11.17-.06.22-.06.41-.11.14,0,.24-.06.43-.09.12,0a.53.53,0,0,1,.67-.11l.15,0h0l.28,0c.3,0,.6-.07.91-.09s.73-.05,1.09-.05Z"/><polygon class="cls-5" points="64.3 157.12 58.73 174.7 37.03 171.16 42.6 153.58 64.3 157.12"/><path d="M58.72,175.21h-.08L37,171.66a.5.5,0,0,1-.4-.65l5.57-17.58a.51.51,0,0,1,.56-.35l21.7,3.54a.5.5,0,0,1,.35.23.48.48,0,0,1,0,.42l-5.57,17.58A.51.51,0,0,1,58.72,175.21Zm-21-4.46,20.68,3.38,5.27-16.61L43,154.15Z"/><g class="cls-6"><g class="cls-14"><g class="cls-6"><path class="cls-8" d="M42.6,153.58,37,171.16a16.1,16.1,0,0,1,.72-4.35l5.57-17.59a16.24,16.24,0,0,0-.72,4.36"/></g></g></g><path class="cls-10" d="M68,135.75q12.83-1,21.87,2.42a40.92,40.92,0,0,1,16.17,11.47L88.91,154.3a18.82,18.82,0,0,0-3.54-3.36,18.11,18.11,0,0,0-5.53-2.52,17.91,17.91,0,0,0-6.12-.56q-7.12.57-9,5.31a8,8,0,0,0-.39,4l-21.7-3.54a14.85,14.85,0,0,1,3.07-8.82Q51.64,137.05,68,135.75Z"/><path d="M64.3,157.62h-.08l-21.7-3.54a.5.5,0,0,1-.42-.52,15.31,15.31,0,0,1,3.17-9.11c4-5.24,11.69-8.34,22.71-9.21,8.58-.68,16,.15,22.09,2.45a41.6,41.6,0,0,1,16.37,11.62.5.5,0,0,1,.11.48.48.48,0,0,1-.35.34L89,154.79a.51.51,0,0,1-.52-.16,18.29,18.29,0,0,0-3.43-3.26,17.85,17.85,0,0,0-5.38-2.46,17.44,17.44,0,0,0-5.95-.54c-4.58.36-7.4,2-8.59,5a7.39,7.39,0,0,0-.38,3.6.41.41,0,0,1,0,.16.5.5,0,0,1-.51.5Zm-21.17-4.47,20.61,3.36a7.83,7.83,0,0,1,.49-3.54c1.33-3.33,4.51-5.22,9.45-5.61a18.4,18.4,0,0,1,6.29.57,19,19,0,0,1,5.69,2.59,18.77,18.77,0,0,1,3.42,3.2l16-4.35a40.4,40.4,0,0,0-15.42-10.73c-5.94-2.25-13.23-3-21.65-2.39-10.72.85-18.12,3.82-22,8.82A14.35,14.35,0,0,0,43.13,153.15Z"/><path class="cls-9" d="M122.07,185.54c0,.1-.09.21-.13.32-.15.34-.3.68-.47,1s-.42.74-.65,1.1c-.07.12-.16.23-.24.35l-.49.69c-.1.13-.21.25-.32.38s-.34.41-.52.6-.25.26-.38.39-.36.36-.55.53l-.44.38c-.19.16-.39.33-.6.48l-.47.36-.66.44-.61.39-.28.17c-.36.2-.71.4-1.09.58q-5,2.5-14.15,3.23c-.9.07-1.79.13-2.66.17l-.88,0-1.7.06c-.34,0-.67,0-1,0s-1,0-1.48,0-.69,0-1,0l-1.34,0c-.48,0-.94-.06-1.41-.1l-1-.07-1.42-.16-.89-.11c-.51-.07-1-.15-1.51-.24l-.69-.11c-.72-.14-1.43-.28-2.11-.45l-.56-.14-1-.27-.31-.09c-.42-.12-.83-.25-1.24-.39l-.2-.07-1-.37-.35-.14-1-.41-.2-.09c-.5-.21-1-.44-1.49-.67l-.28-.14c-.49-.23-1-.47-1.46-.73l-.24-.13c-.48-.26-1-.53-1.43-.81l-.1-.05q-.73-.44-1.47-.9a2.9,2.9,0,0,0-.29-.19l-1.42-.95-.26-.19c-.49-.35-1-.7-1.48-1.07a37.73,37.73,0,0,1-12-15.65,29.6,29.6,0,0,1-2.68-11.22l-5.57,17.58A29.41,29.41,0,0,0,47.52,190a37.73,37.73,0,0,0,11.95,15.65c.49.37,1,.73,1.48,1.07a2.48,2.48,0,0,0,.26.19c.47.33.95.65,1.43,1l.11.07.16.1c.49.32,1,.62,1.48.91l.08,0c.48.28,1,.55,1.45.81l.24.13c.48.26,1,.5,1.45.74l.29.13c.5.24,1,.46,1.49.67l0,0,.15.06c.35.15.69.29,1,.42l.36.14,1,.37.22.08,1.22.38.35.1.93.25.23.07.35.08c.69.17,1.39.32,2.11.45l.69.11,1.52.25.88.1c.47.06.94.12,1.42.16l1,.08c.46,0,.93.07,1.4.09l.18,0,1.17,0,1,0h2.49l1.7-.05.87,0c.88,0,1.77-.1,2.67-.18q9.12-.72,14.15-3.23c.37-.18.73-.38,1.09-.58l.28-.17.32-.19.28-.19.67-.45.46-.35.62-.49.42-.37.56-.54c.13-.13.26-.25.37-.38s.36-.41.53-.61.18-.19.26-.3l.06-.08c.17-.22.33-.45.49-.69l.24-.35a10.88,10.88,0,0,0,.64-1.1c.18-.33.33-.67.48-1l.12-.31c.06-.15.12-.29.17-.43s.13-.36.18-.54l5.58-17.58C122.31,184.91,122.19,185.22,122.07,185.54Z"/><path d="M87.3,215.3h-.59l-.71,0-.74,0c-.26,0-.52,0-.78,0h-.17l-1.17-.08-.6,0-.65-.05-1.2-.14-.56-.06-.57-.07c-.5-.07-1-.15-1.48-.24l-.33-.05-.42-.07c-.74-.14-1.46-.29-2.14-.45l-.59-.16-.94-.25-.35-.1c-.41-.12-.83-.25-1.24-.39l-.23-.08-1-.37-.36-.14L69.38,212l-.15-.06c-.54-.23-1-.46-1.55-.7l-.29-.14c-.49-.23-1-.48-1.47-.74l-.24-.13-1.47-.82-.08,0c-.5-.29-1-.6-1.5-.92l-.27-.18-1.44-1-.27-.19c-.49-.35-1-.71-1.49-1.09a38.4,38.4,0,0,1-12.11-15.85,30.23,30.23,0,0,1-2.72-11.42.77.77,0,0,1,0-.15l5.58-17.59a.51.51,0,0,1,1,.15,29.05,29.05,0,0,0,2.64,11,37.33,37.33,0,0,0,11.79,15.44c.49.37,1,.72,1.46,1.07l.26.18c.47.33.94.64,1.41.94l.29.19c.48.31,1,.61,1.45.89l.09.06c.47.27,1,.54,1.42.79l.24.13c.48.25,1,.5,1.44.73l.28.13c.49.23,1,.46,1.46.66l.21.09,1,.41.35.13,1,.37.2.07,1.22.39.31.08c.32.1.64.18,1,.27l.16,0,.38.1c.67.16,1.37.3,2.09.44l.39.06.39.07c.47.08.93.16,1.4.22l.53.06.56.07c.4.05.79.1,1.19.13l.65.05.57,0,1.16.07,1.07,0,.62,0,.68,0c.2,0,.39,0,.59,0l1,0h.41l.43,0,1.48,0h.58l.5,0c.89,0,1.78-.1,2.65-.17,6-.47,10.69-1.54,14-3.17l1-.57.28-.17.58-.36.65-.45.46-.34.59-.47c.15-.13.29-.24.41-.36s.37-.34.54-.52l.09-.09c.1-.09.19-.19.28-.28l.5-.58.11-.13.2-.24c.17-.22.32-.44.47-.67l.11-.15.13-.18c.23-.37.43-.71.62-1.06s.29-.61.45-1l.09-.21,0-.1c.13-.34.24-.62.33-.92h0a.52.52,0,0,1,.64-.33.5.5,0,0,1,.33.64h0l-5.57,17.58c-.06.19-.12.38-.19.56l-.12.3-.09.24c0,.07-.06.15-.1.23-.17.4-.33.74-.49,1.05s-.42.75-.66,1.14l-.16.23-.09.13c-.17.24-.33.48-.51.71a.35.35,0,0,0-.06.09l-.17.19-.1.11c-.18.22-.35.43-.54.63s-.2.2-.3.3l-.09.09-.58.57-.44.37a7.79,7.79,0,0,1-.63.51l-.48.36c-.22.16-.45.31-.68.46l-.11.08-.18.12-.21.13-.41.24c-.42.24-.77.43-1.11.6-3.4,1.69-8.23,2.8-14.34,3.28-.88.07-1.79.13-2.68.17l-.53,0-.56,0-1.5,0H87.3ZM45.35,178.86A29.13,29.13,0,0,0,48,189.81a37.39,37.39,0,0,0,11.78,15.44c.49.37,1,.72,1.47,1.07l.26.18c.47.33.94.65,1.41.95l.27.17c.49.31,1,.62,1.47.91l.08,0c.47.28,1,.55,1.43.8l.24.13c.48.26.95.5,1.43.73l.29.14,1.46.66.19.07,1,.42.36.13,1,.37.23.08c.39.13.8.26,1.2.37l.34.1.92.25.57.15c.66.16,1.36.31,2.09.44l.38.06.35.06,1.45.23.54.07.57.06c.39.05.77.1,1.17.13l.63,0,.61.05,1.14.08h.17l.76,0,.75,0,.69,0c.19,0,.38.09.57.09l1.06.09h.41c.14,0,.28-.09.43-.1.48,0,1-.07,1.48-.09l.57,0,.51,0c.88,0,1.78-.11,2.65-.18,6-.47,10.68-1.54,14-3.18.33-.16.66-.34,1.06-.57l.41-.24.18-.11.14-.09.14-.1c.22-.14.43-.29.64-.44l.46-.33.59-.48.41-.36c.19-.17.37-.34.54-.52l.1-.1.26-.27c.18-.19.35-.39.51-.59l.12-.13.13-.15s0-.07,0-.08c.17-.22.32-.44.48-.66l.1-.15.13-.19c.23-.36.44-.72.62-1.06s.3-.61.46-1l.08-.2.1-.26a2.6,2.6,0,0,0,.1-.25c.07-.17.12-.35.18-.52l4-12.47,0,.06-.1.12c-.17.21-.35.42-.54.62l-.3.31-.09.09-.57.55-.43.37c-.22.19-.43.35-.64.52l-.49.36-.67.46c-.22.14-.42.27-.63.39l-.29.18-1.11.6c-3.4,1.69-8.22,2.8-14.34,3.28-.88.07-1.78.13-2.68.17l-.52,0-.57,0-1.5.05h-2.5l-.71,0-.61,0-1.09,0-1.19-.08-.56,0-.67-.06c-.41,0-.82-.08-1.22-.13l-.55-.07-.56-.06L83.7,197l-.37-.06-.43-.07c-.74-.14-1.45-.29-2.13-.46l-.41-.1-.16,0q-.49-.12-1-.27l-.32-.09-1.25-.4-.2-.07L76.37,195l-.35-.13-1-.43-.21-.08c-.5-.22-1-.44-1.5-.68l-.29-.14c-.49-.23-1-.48-1.47-.74l-.25-.13-1.45-.82-.1-.05c-.49-.29-1-.6-1.48-.92l-.3-.18c-.47-.31-1-.63-1.43-1l-.26-.18c-.5-.35-1-.71-1.49-1.09a38.39,38.39,0,0,1-12.11-15.85,34,34,0,0,1-2.54-8.75Z"/><path class="cls-10" d="M50.41,161.21l21.8,3.55a26,26,0,0,0,1.85,5.9q3.73,8.73,8.54,11.71a17.81,17.81,0,0,0,11,2.48c4-.32,6.67-1.43,8-3.34s1.71-4.56,1.22-7.95L123,176.4a17.8,17.8,0,0,1-1.55,10.47,15.91,15.91,0,0,1-7.3,6.84q-5,2.5-14.15,3.23a61.62,61.62,0,0,1-19.13-1.06A43,43,0,0,1,65,188.08a37.73,37.73,0,0,1-12-15.65A29.6,29.6,0,0,1,50.41,161.21Z"/><path d="M93.43,197.72a54.38,54.38,0,0,1-12.66-1.35,43.54,43.54,0,0,1-16-7.89,38.39,38.39,0,0,1-12.11-15.85,30.26,30.26,0,0,1-2.73-11.42.53.53,0,0,1,.18-.39.48.48,0,0,1,.41-.11l21.81,3.55a.49.49,0,0,1,.41.42,26.58,26.58,0,0,0,1.81,5.78c2.44,5.7,5.25,9.56,8.35,11.48a17.31,17.31,0,0,0,10.7,2.4c3.84-.3,6.39-1.35,7.6-3.12s1.61-4.34,1.14-7.59a.52.52,0,0,1,.14-.43.5.5,0,0,1,.43-.15l20.21,2.85a.52.52,0,0,1,.44.45,18.37,18.37,0,0,1-1.61,10.76,16.58,16.58,0,0,1-7.52,7.06c-3.4,1.69-8.22,2.8-14.34,3.28C97.77,197.63,95.53,197.72,93.43,197.72Zm-42.5-35.91a30.21,30.21,0,0,0,2.63,10.42,37.33,37.33,0,0,0,11.79,15.44A42.79,42.79,0,0,0,81,195.39a61.91,61.91,0,0,0,19,1.05c6-.48,10.69-1.55,14-3.18a15.52,15.52,0,0,0,7.07-6.62,17.24,17.24,0,0,0,1.54-9.79l-19.16-2.7c.36,3.2-.1,5.77-1.39,7.65s-4.2,3.22-8.36,3.55a18.25,18.25,0,0,1-11.31-2.55c-3.29-2-6.23-6.05-8.75-11.94a28.05,28.05,0,0,1-1.81-5.66Z"/><path class="cls-15" d="M45.9,150.89s.43-12.95,26.15-13.63C72.05,137.26,52.6,139.16,45.9,150.89Z"/><path class="cls-15" d="M148.68,132.61s17.43-3.05,25.22,7.78C173.9,140.39,164.55,132.19,148.68,132.61Z"/><polygon class="cls-15" points="210.7 127.89 224.91 126.59 236.65 138.94 224.7 128.02 210.7 127.89"/><path class="cls-15" d="M288.48,120.76S308.78,117.88,320,131C320,131,309.29,121.53,288.48,120.76Z"/><polygon class="cls-15" points="344.91 116.55 332.54 117.66 338.14 130.53 334.19 118.56 344.91 116.55"/><polygon class="cls-15" points="376.26 114.57 396.63 112.35 384.82 128.02 393.96 114 376.26 114.57"/><polygon class="cls-15" points="131.57 133.86 113.99 135.01 123.43 156.51 116.4 136.31 131.57 133.86"/><polygon class="cls-15" points="375.5 145.09 386.09 142.62 395.76 149.79 385.97 144.46 375.5 145.09"/><polygon class="cls-15" points="223.68 162.73 209.62 159.84 209.27 173.21 211.65 162.1 223.68 162.73"/><polygon class="cls-15" points="172.31 167.62 179.36 162.84 189.77 169.74 179.74 164.25 172.31 167.62"/><polygon class="cls-15" points="355.44 150.81 343.56 153.85 347.19 161.97 345.67 154.53 355.44 150.81"/><path class="cls-15" d="M62,165.7l-8-1.84s.39,15,15.86,24.29c0,0-13.88-9.71-13.62-22.16Z"/><polygon class="cls-15" points="139.27 182.13 134.83 173.21 144.5 175.12 136.94 174.8 139.27 182.13"/><path class="cls-15" d="M284.63,159.84a32.55,32.55,0,0,0,5.47,3.76,22.75,22.75,0,0,0,5.84,2.25,13.77,13.77,0,0,0,1.53.3l.77.15c.26,0,.53,0,.79.06l1.57.15h1.61l.81,0c.27,0,.54-.05.81-.06l1.66-.09c1.11-.08,2.22-.27,3.41-.3a22.83,22.83,0,0,1-3,1.73l-1.67.6-.85.28-.87.17c-.59.1-1.18.21-1.78.29s-1.21,0-1.81,0c-.31,0-.61,0-.91,0l-.91-.11a13.54,13.54,0,0,1-1.8-.31,15.72,15.72,0,0,1-6.48-3.23A13.33,13.33,0,0,1,284.63,159.84Z"/><g id="g4"><path id="rect2" class="cls-16" d="M482.77,73.87h30.56a10.52,10.52,0,0,1,10.39,10.65v29.91a10.52,10.52,0,0,1-10.39,10.65H482.77a10.52,10.52,0,0,1-10.39-10.65V84.52A10.52,10.52,0,0,1,482.77,73.87Z"/></g><g id="g8"><path id="path6" class="cls-17" d="M470.05,82.12v34.7a10.52,10.52,0,0,0,10.39,10.65h35.22a10.52,10.52,0,0,0,10.39-10.65V82.12a10.52,10.52,0,0,0-10.39-10.65H480.44A10.52,10.52,0,0,0,470.05,82.12Zm12.72-8.25h30.56a10.52,10.52,0,0,1,10.39,10.65v29.91a10.52,10.52,0,0,1-10.39,10.65H482.77a10.52,10.52,0,0,1-10.39-10.65V84.52A10.52,10.52,0,0,1,482.77,73.87Z"/></g><path id="path10" class="cls-17" d="M483.58,84.58c0-.15.33-.27.53-.27,1.5-.08,3.7-.12,6-.12,6.47,0,9,3.63,9,8.29,0,6.08-4.3,8.69-9.58,8.69-.88,0-1.19,0-1.81,0v9.19c0,.2-.07.28-.27.28h-3.6c-.19,0-.27-.08-.27-.28Zm4.14,12.72c.54,0,1,0,1.89,0,2.73,0,5.3-1,5.3-4.78,0-3-1.83-4.58-5-4.58-.93,0-1.81,0-2.24.08Zm20.09-2.84c-1.85,0-2.47.94-2.47,1.73s.43,1.46,2.89,2.77c3.66,1.81,4.81,3.55,4.81,6.12,0,3.83-2.85,5.88-6.7,5.88a10,10,0,0,1-4.77-1c-.16-.08-.2-.2-.2-.4V106c0-.24.12-.32.27-.2a8.47,8.47,0,0,0,4.7,1.42c1.85,0,2.62-.79,2.62-1.86,0-.86-.54-1.61-2.89-2.88-3.31-1.62-4.69-3.28-4.69-6,0-3.08,2.35-5.65,6.43-5.65a10.7,10.7,0,0,1,4.18.67.51.51,0,0,1,.23.48v3.28c0,.19-.11.31-.34.23a8.23,8.23,0,0,0-4.07-1Z"/><rect id="rect11" class="cls-18" x="474.07" y="184.92" width="51.33" height="51.21"/><path id="path13" class="cls-19" d="M471.74,182.53v56h56v-56Zm2.33,2.39H525.4v51.21H474.07Z"/><path id="path15" class="cls-19" d="M491.16,214.24l-1.85,7.18c0,.2-.11.24-.34.24h-3.43c-.23,0-.27-.08-.23-.36l6.62-23.8a7.35,7.35,0,0,0,.24-2c0-.16.07-.24.19-.24h4.89c.15,0,.23,0,.27.24L505,221.34c0,.2,0,.32-.19.32H500.9c-.19,0-.3,0-.34-.21l-1.93-7.21Zm6.51-3.89c-.66-2.65-2.2-8.45-2.77-11.25h0c-.49,2.81-1.73,7.54-2.7,11.25Zm10.5-13.3a2.39,2.39,0,1,1,4.77,0,2.26,2.26,0,0,1-2.42,2.45,2.22,2.22,0,0,1-2.35-2.45Zm.26,5.44c0-.2.08-.28.27-.28h3.66c.19,0,.27.08.27.28v18.89c0,.2,0,.28-.27.28h-3.62c-.24,0-.31-.12-.31-.32Z"/></g></svg>