<svg id="Capa_1" data-name="Capa 1" xmlns="http://www.w3.org/2000/svg" viewBox="0 0 917.3 1066"><defs><style>.cls-1{fill:#ef1d32;}</style></defs><path class="cls-1" d="M726.61,7V326.19H517.79V7H314.43V881.58C251.18,877.5,198.93,843,176.3,789.5l-4-8.4-14.63,12.73L11.73,937.55h0v0l-.36.35.57.58A166.07,166.07,0,0,0,174.86,1073c74.82,0,143-51,161.38-126.87a163.31,163.31,0,0,0,4.61-36.76c98.72-6.91,176.94-89.37,176.94-189.82V527.12H726.61v378h202V7ZM491.75,719.55c0,86.22-66.75,157.14-151.29,163.8V33H491.75ZM902.61,879.13h-150v-378H517.79V352.22H752.64V33h150Z" transform="translate(-11.35 -7)"/></svg>