<svg id="Capa_1" data-name="Capa 1" xmlns="http://www.w3.org/2000/svg" viewBox="0 0 905.63 419.91"><defs><style>.cls-1{fill:#ef1d32;}</style></defs><path d="M254.85,696.69l-.89-.11v-.18h1Z" transform="translate(-81.07 -348.37)"/><path d="M264.85,426.44l-.89-.11v-.18h1Z" transform="translate(-81.07 -348.37)"/><path class="cls-1" d="M485.21,490.29h14v39.19c0,17.66-8.46,23.83-22.08,23.83a36.5,36.5,0,0,1-10.21-1.48l1.56-11.31a23.21,23.21,0,0,0,7.18,1.1c5.89,0,9.57-2.67,9.57-12.33Z" transform="translate(-81.07 -348.37)"/><path class="cls-1" d="M552.82,537.85c0,5.89.19,10.67.37,14.44H541.05L540.4,546h-.27a16.05,16.05,0,0,1-14.08,7.36c-9.1,0-15.82-5.71-15.82-19.6v-26.4H524.3V531.5c0,6.53,2.12,10.49,7,10.49a7.53,7.53,0,0,0,7-4.88,7.73,7.73,0,0,0,.46-3V507.31h14.07Z" transform="translate(-81.07 -348.37)"/><path class="cls-1" d="M589.62,552.29l-.82-4.5h-.28c-2.94,3.58-7.54,5.52-12.88,5.52-9.11,0-14.53-6.63-14.53-13.8,0-11.69,10.48-17.3,26.4-17.21v-.64c0-2.39-1.29-5.8-8.19-5.8a25.29,25.29,0,0,0-12.42,3.41l-2.57-9a37.08,37.08,0,0,1,17.47-3.95c15,0,19.78,8.83,19.78,19.41v15.64a69.47,69.47,0,0,0,.65,10.94ZM588,531c-7.36-.09-13.07,1.66-13.07,7.09,0,3.58,2.4,5.33,5.52,5.33a7.64,7.64,0,0,0,7.27-5.15,9.72,9.72,0,0,0,.28-2.39Z" transform="translate(-81.07 -348.37)"/><path class="cls-1" d="M612.63,521.66c0-5.61-.19-10.4-.37-14.35H624.4l.64,6.16h.28a16.47,16.47,0,0,1,13.89-7.17c9.2,0,16.1,6.07,16.1,19.31v26.68h-14V527.36c0-5.79-2-9.75-7.09-9.75a7.46,7.46,0,0,0-7.08,5.25,9.5,9.5,0,0,0-.55,3.49v25.94h-14Z" transform="translate(-81.07 -348.37)"/><path class="cls-1" d="M699.66,490.29v23.83h23.09V490.29h14v62h-14V526.35H699.66v25.94H685.58v-62Z" transform="translate(-81.07 -348.37)"/><path class="cls-1" d="M759,534.26c.46,5.8,6.16,8.56,12.69,8.56A39.76,39.76,0,0,0,784.11,541l1.84,9.47a44.39,44.39,0,0,1-16.28,2.76c-15.27,0-24-8.83-24-22.9,0-11.41,7.08-24,22.72-24,14.54,0,20.06,11.31,20.06,22.44a33.67,33.67,0,0,1-.46,5.52Zm16.46-9.57c0-3.4-1.47-9.1-7.91-9.1-5.88,0-8.28,5.33-8.64,9.1Z" transform="translate(-81.07 -348.37)"/><path class="cls-1" d="M796.81,522.12c0-6.62-.18-10.95-.37-14.81h12l.46,8.28h.37c2.3-6.53,7.82-9.29,12.14-9.29a14.77,14.77,0,0,1,2.95.18v13.16a19.53,19.53,0,0,0-3.77-.37c-5.15,0-8.65,2.76-9.57,7.08a16,16,0,0,0-.28,3.13v22.81h-14Z" transform="translate(-81.07 -348.37)"/><path class="cls-1" d="M831.77,522.12c0-6.62-.19-10.95-.37-14.81h12.05l.46,8.28h.37c2.3-6.53,7.82-9.29,12.14-9.29a14.77,14.77,0,0,1,3,.18v13.16a19.53,19.53,0,0,0-3.77-.37c-5.16,0-8.65,2.76-9.57,7.08a16,16,0,0,0-.28,3.13v22.81h-14Z" transform="translate(-81.07 -348.37)"/><path class="cls-1" d="M876.76,534.26c.46,5.8,6.16,8.56,12.69,8.56A39.76,39.76,0,0,0,901.87,541l1.84,9.47a44.39,44.39,0,0,1-16.28,2.76c-15.27,0-24-8.83-24-22.9,0-11.41,7.08-24,22.72-24,14.53,0,20.05,11.31,20.05,22.44a32.57,32.57,0,0,1-.46,5.52Zm16.46-9.57c0-3.4-1.47-9.1-7.91-9.1-5.89,0-8.28,5.33-8.65,9.1Z" transform="translate(-81.07 -348.37)"/><path class="cls-1" d="M914.57,522.12c0-6.62-.19-10.95-.37-14.81h12l.46,8.28h.37c2.3-6.53,7.82-9.29,12.14-9.29a14.77,14.77,0,0,1,2.95.18v13.16a19.53,19.53,0,0,0-3.77-.37c-5.16,0-8.65,2.76-9.57,7.08a16,16,0,0,0-.28,3.13v22.81h-14Z" transform="translate(-81.07 -348.37)"/><path class="cls-1" d="M974.09,552.29l-.83-4.5H973c-3,3.58-7.55,5.52-12.88,5.52-9.11,0-14.54-6.63-14.54-13.8,0-11.69,10.49-17.3,26.41-17.21v-.64c0-2.39-1.29-5.8-8.19-5.8a25.29,25.29,0,0,0-12.42,3.41l-2.58-9a37.12,37.12,0,0,1,17.48-3.95c15,0,19.78,8.83,19.78,19.41v15.64a69.47,69.47,0,0,0,.65,10.94ZM972.44,531c-7.36-.09-13.07,1.66-13.07,7.09,0,3.58,2.39,5.33,5.52,5.33a7.64,7.64,0,0,0,7.27-5.15,10.23,10.23,0,0,0,.28-2.39Z" transform="translate(-81.07 -348.37)"/><path class="cls-1" d="M483,591.86l-7.68,40.43h-7L476,591.86Z" transform="translate(-81.07 -348.37)"/><path class="cls-1" d="M483.55,632.29l3.78-20.16c.72-3.48,1.14-6.54,1.5-9.06H495l-.6,5.28h.12c2.7-4,6.42-5.94,10.5-5.94s7.44,2.53,7.44,8a28.66,28.66,0,0,1-.54,4.86l-3.24,17h-7l3.12-16.5a22.06,22.06,0,0,0,.36-3.48c0-2.4-.9-4.2-3.66-4.2-3.18,0-7.26,3.84-8.52,10.68l-2.52,13.5Z" transform="translate(-81.07 -348.37)"/><path class="cls-1" d="M531.49,595l-1.5,8h6.6l-1.08,5.4H529l-2.34,11.82a25.81,25.81,0,0,0-.48,4.14,2.29,2.29,0,0,0,2.58,2.58,15.3,15.3,0,0,0,2.4-.12l-.66,5.46a15.84,15.84,0,0,1-4.56.6c-4.8,0-7-2.64-7-6a24,24,0,0,1,.66-5.46l2.52-13h-4l1-5.4h4l1.2-6.29Z" transform="translate(-81.07 -348.37)"/><path class="cls-1" d="M559.15,630.61a23.46,23.46,0,0,1-10.32,2.28c-8.1,0-12-4.92-12-12.06,0-8.82,6.48-18.42,16.56-18.42,5.76,0,9.42,3.37,9.42,8.22,0,7.5-7.86,9.9-19.14,9.66a8.07,8.07,0,0,0,.78,4.14c1.14,2,3.24,3,6,3a17.27,17.27,0,0,0,8-1.92Zm-6.66-23c-4.38,0-7.26,3.9-8.1,7.44,7.2.12,11.82-.9,11.82-4.38C556.21,608.78,554.71,607.63,552.49,607.63Z" transform="translate(-81.07 -348.37)"/><path class="cls-1" d="M565,632.29l8.16-42.6h7l-8.1,42.6Z" transform="translate(-81.07 -348.37)"/><path class="cls-1" d="M579.91,632.29l5.52-29.22h7l-5.58,29.22Zm6.66-37.14a4.15,4.15,0,0,1,4.2-4.25,3.6,3.6,0,0,1,3.72,3.78,4.15,4.15,0,0,1-4.32,4.19A3.46,3.46,0,0,1,586.57,595.15Z" transform="translate(-81.07 -348.37)"/><path class="cls-1" d="M596,637.51a17.35,17.35,0,0,0,7.74,1.74c4.56,0,8-2.16,9.48-8.94l.72-3.3h-.12c-2.4,3.48-5.46,5.16-9.18,5.16-5.82,0-9.12-4.8-9.18-10.32,0-9.72,7-19.44,19.14-19.44a25.84,25.84,0,0,1,10.14,2l-4.44,24.12c-1.08,5.7-2.76,10.26-6,13-3.06,2.52-7.2,3.24-10.86,3.24s-7.2-.78-9.12-2Zm21.12-28.92a9.65,9.65,0,0,0-3.84-.72c-6.12,0-10.44,6.6-10.44,12.9-.06,3.06,1.2,5.94,4.68,5.94s7-4.14,8-9.42Z" transform="translate(-81.07 -348.37)"/><path class="cls-1" d="M650.35,630.61A23.46,23.46,0,0,1,640,632.89c-8.1,0-12-4.92-12-12.06,0-8.82,6.48-18.42,16.56-18.42,5.76,0,9.42,3.37,9.42,8.22,0,7.5-7.86,9.9-19.14,9.66a8.07,8.07,0,0,0,.78,4.14c1.14,2,3.24,3,6,3a17.27,17.27,0,0,0,8-1.92Zm-6.66-23c-4.38,0-7.26,3.9-8.1,7.44,7.2.12,11.82-.9,11.82-4.38C647.41,608.78,645.91,607.63,643.69,607.63Z" transform="translate(-81.07 -348.37)"/><path class="cls-1" d="M656.17,632.29,660,612.13c.72-3.48,1.14-6.54,1.5-9.06h6.18l-.6,5.28h.12c2.7-4,6.42-5.94,10.5-5.94s7.44,2.53,7.44,8a28.66,28.66,0,0,1-.54,4.86l-3.24,17h-7l3.12-16.5a22.06,22.06,0,0,0,.36-3.48c0-2.4-.9-4.2-3.66-4.2-3.18,0-7.26,3.84-8.52,10.68l-2.52,13.5Z" transform="translate(-81.07 -348.37)"/><path class="cls-1" d="M710,631.27a19.77,19.77,0,0,1-8.39,1.62c-7.32,0-11.82-4.68-11.82-11.64,0-10.2,7.74-18.84,18.59-18.84a15.91,15.91,0,0,1,6,1.14L712.56,609a10.39,10.39,0,0,0-4.38-.9c-6.77,0-11,6.24-11,12.3,0,4.38,2.52,6.84,6.42,6.84a15,15,0,0,0,6.23-1.38Z" transform="translate(-81.07 -348.37)"/><path class="cls-1" d="M715,632.29l5.52-29.22h7l-5.57,29.22Zm6.66-37.14a4.14,4.14,0,0,1,4.2-4.25,3.59,3.59,0,0,1,3.71,3.78,4.14,4.14,0,0,1-4.31,4.19A3.46,3.46,0,0,1,721.63,595.15Z" transform="translate(-81.07 -348.37)"/><path class="cls-1" d="M749.1,632.29c.06-1.74.3-4.08.54-6.6h-.18c-2.88,5.4-6.72,7.26-10.44,7.26-5.22,0-8.64-4.08-8.64-10,0-10,7-20.58,20.58-20.58a31.4,31.4,0,0,1,8.82,1.32l-3,15.24a68.07,68.07,0,0,0-1.2,13.32ZM752,608.11a11.73,11.73,0,0,0-2.88-.3c-6.47,0-11.46,7.26-11.46,13.92,0,3.06,1.15,5.58,4.2,5.58,3.24,0,7.2-4.08,8.58-11.52Z" transform="translate(-81.07 -348.37)"/><path class="cls-1" d="M802.8,631.09a27.22,27.22,0,0,1-10.56,1.8c-10.5,0-17.22-6.48-17.22-17,0-8.4,3.6-15.54,9.48-19.92a24.35,24.35,0,0,1,15.06-4.8c4.44,0,7.68,1.09,8.82,1.87l-2,5.63a17.61,17.61,0,0,0-7.62-1.43A15.72,15.72,0,0,0,788.4,601c-3.54,3.11-5.82,8.21-5.82,14.09,0,6.78,3.48,11.88,11.46,11.88a19.9,19.9,0,0,0,8.1-1.56Z" transform="translate(-81.07 -348.37)"/><path class="cls-1" d="M807.54,632.29l3.42-18c.78-4.14,1.14-8.58,1.5-11.22h6.06c-.18,2-.36,4-.66,6.18H818c2-4,5.16-6.84,9.18-6.84.48,0,1,.07,1.5.12l-1.38,6.84a8.27,8.27,0,0,0-1.32-.12c-5,0-8.16,5-9.3,11.28l-2.22,11.76Z" transform="translate(-81.07 -348.37)"/><path class="cls-1" d="M851,630.61a23.46,23.46,0,0,1-10.32,2.28c-8.1,0-12-4.92-12-12.06,0-8.82,6.48-18.42,16.56-18.42,5.76,0,9.42,3.37,9.42,8.22,0,7.5-7.86,9.9-19.14,9.66a8.07,8.07,0,0,0,.78,4.14c1.14,2,3.24,3,6,3a17.27,17.27,0,0,0,8-1.92Zm-6.66-23c-4.38,0-7.26,3.9-8.1,7.44,7.2.12,11.82-.9,11.82-4.38C848.1,608.78,846.6,607.63,844.38,607.63Z" transform="translate(-81.07 -348.37)"/><path class="cls-1" d="M876.06,632.29c.06-1.74.3-4.08.54-6.6h-.18c-2.88,5.4-6.72,7.26-10.44,7.26-5.22,0-8.64-4.08-8.64-10,0-10,7-20.58,20.58-20.58a31.4,31.4,0,0,1,8.82,1.32l-3,15.24a68.07,68.07,0,0,0-1.2,13.32Zm2.88-24.18a11.73,11.73,0,0,0-2.88-.3c-6.48,0-11.46,7.26-11.46,13.92,0,3.06,1.14,5.58,4.2,5.58,3.24,0,7.2-4.08,8.58-11.52Z" transform="translate(-81.07 -348.37)"/><path class="cls-1" d="M904.2,595l-1.5,8h6.6l-1.08,5.4h-6.54l-2.34,11.82a25.81,25.81,0,0,0-.48,4.14,2.29,2.29,0,0,0,2.58,2.58,15.3,15.3,0,0,0,2.4-.12l-.66,5.46a15.84,15.84,0,0,1-4.56.6c-4.8,0-7-2.64-7-6a24,24,0,0,1,.66-5.46l2.52-13h-4l1-5.4h4l1.2-6.29Z" transform="translate(-81.07 -348.37)"/><path class="cls-1" d="M909.24,632.29l5.52-29.22h7l-5.58,29.22Zm6.66-37.14a4.15,4.15,0,0,1,4.2-4.25,3.6,3.6,0,0,1,3.72,3.78,4.15,4.15,0,0,1-4.32,4.19A3.46,3.46,0,0,1,915.9,595.15Z" transform="translate(-81.07 -348.37)"/><path class="cls-1" d="M933.06,603.07l1.86,14.52c.36,3.48.72,5.7.84,7.62h.18c.72-1.86,1.56-4,3.18-7.44l7.26-14.7h7.74l-16.26,29.22h-7l-5-29.22Z" transform="translate(-81.07 -348.37)"/><path class="cls-1" d="M971.4,632.29c.06-1.74.3-4.08.54-6.6h-.18c-2.88,5.4-6.72,7.26-10.44,7.26-5.22,0-8.64-4.08-8.64-10,0-10,7-20.58,20.58-20.58a31.4,31.4,0,0,1,8.82,1.32l-3,15.24a68.07,68.07,0,0,0-1.2,13.32Zm2.88-24.18a11.73,11.73,0,0,0-2.88-.3c-6.48,0-11.46,7.26-11.46,13.92,0,3.06,1.14,5.58,4.2,5.58,3.24,0,7.2-4.08,8.58-11.52Z" transform="translate(-81.07 -348.37)"/><path class="cls-1" d="M362.81,348.37V474.1H280.56V348.37H200.45V692.88c-24.91-1.61-45.49-15.2-54.41-36.27l-1.58-3.31-5.76,5L81.22,714.93h0l-.14.14.22.23a65.42,65.42,0,0,0,64.18,53l1.07,0c15.22.3,124.27-2,133.38-129.57a74.8,74.8,0,0,0,.64-9.64v-75.8h82.25V702.17H442.4V348.37Zm-152.1,10.26H270.3V629.05a64.8,64.8,0,0,1-59.59,64.52ZM432.14,691.91H373.07V543H280.56V484.36h92.51V358.63h59.07Z" transform="translate(-81.07 -348.37)"/></svg>